<svg xmlns="http://www.w3.org/2000/svg" viewBox="0 0 375 375"><defs><style>.cls-1,.cls-2,.cls-3,.cls-4{fill:none;stroke:#000;stroke-miterlimit:10;}.cls-1{stroke-width:2px;}.cls-3{stroke-dasharray:11.81 11.81;}.cls-4{stroke-dasharray:12;}</style></defs><title>img04</title><g id="Ebene_2" data-name="Ebene 2"><g id="Ebene_1-2" data-name="Ebene 1"><line class="cls-1" x1="49.5" y1="12.07" x2="49.5" y2="375"/><path d="M49.5,0C47.39,5.68,43.8,12.73,40,17.09l9.51-3.44L59,17.09C55.2,12.73,51.61,5.68,49.5,0Z"/><line class="cls-1" y1="325.5" x2="362.93" y2="325.5"/><path d="M375,325.5c-5.68,2.11-12.73,5.7-17.09,9.51l3.44-9.51L357.91,316C362.27,319.8,369.32,323.39,375,325.5Z"/><line class="cls-2" x1="49.5" y1="80" x2="55.5" y2="80"/><line class="cls-3" x1="67.31" y1="80" x2="297.6" y2="80"/><line class="cls-2" x1="303.5" y1="80" x2="309.5" y2="80"/><line class="cls-4" x1="309.5" y1="80" x2="309.5" y2="325"/><path id="MJMAIN-28" d="M315.15,71.13a18.89,18.89,0,0,1,.22-3,19.69,19.69,0,0,1,.53-2.43,8.86,8.86,0,0,1,.84-2l.86-1.53a6.07,6.07,0,0,1,1-1.18c.42-.42.67-.68.75-.77a3.61,3.61,0,0,1,.57-.48h.38c.21,0,.32.07.32.21a1.94,1.94,0,0,1-.39.47,13.34,13.34,0,0,0-.93,1.21,16.49,16.49,0,0,0-1.11,2,13.07,13.07,0,0,0-1,3.14,22.79,22.79,0,0,0-.38,4.39,22.51,22.51,0,0,0,.38,4.37,15.33,15.33,0,0,0,.93,3.16,10.62,10.62,0,0,0,1.12,2c.38.5.7.9.95,1.21a4,4,0,0,1,.39.48c0,.13-.11.2-.34.2h-.36l-.64-.55a11.18,11.18,0,0,1-3.12-4.82A18.58,18.58,0,0,1,315.15,71.13Z"/><path id="MJMATHI-61" d="M322.6,73.25a6.73,6.73,0,0,1,1.73-4.37,5.07,5.07,0,0,1,3.89-2.09,2.59,2.59,0,0,1,2,1.11,1.14,1.14,0,0,1,1-.68.85.85,0,0,1,.53.18.55.55,0,0,1,.22.46c0,.19-.28,1.41-.84,3.63s-.85,3.49-.86,3.78a1.18,1.18,0,0,0,.16.75.63.63,0,0,0,.47.2,1,1,0,0,0,.46-.2,5.08,5.08,0,0,0,.93-2.18c.09-.31.17-.47.23-.48a.59.59,0,0,1,.23,0h.09c.29,0,.43.06.43.2a4,4,0,0,1-.11.61,7.32,7.32,0,0,1-.46,1.23,3.94,3.94,0,0,1-.73,1.14,2.16,2.16,0,0,1-.72.48,2.62,2.62,0,0,1-.55,0,2.31,2.31,0,0,1-1.3-.34,1.85,1.85,0,0,1-.68-.7l-.13-.34s-.05,0-.1,0l-.09.09A4,4,0,0,1,325.76,77a3.09,3.09,0,0,1-2.2-.91A3.8,3.8,0,0,1,322.6,73.25Zm7.23-3.89a1.8,1.8,0,0,0-.11-.5,2.08,2.08,0,0,0-.52-.8,1.42,1.42,0,0,0-1.05-.45,2.16,2.16,0,0,0-1.52.7,4.72,4.72,0,0,0-1.14,1.84,18,18,0,0,0-.93,3.73v.25a1.91,1.91,0,0,1,0,.28,1.84,1.84,0,0,0,.41,1.4,1.4,1.4,0,0,0,1,.41,2.57,2.57,0,0,0,1.71-.75,3.8,3.8,0,0,0,1-1.16c0-.06.23-.87.61-2.43S329.82,69.48,329.83,69.36Z"/><path id="MJMAIN-2C" d="M335.68,76v-.57a1.45,1.45,0,0,1,.36-1,1.27,1.27,0,0,1,1-.41,1.51,1.51,0,0,1,1.14.57,3.14,3.14,0,0,1,.52,2,6.16,6.16,0,0,1-.2,1.55,7.74,7.74,0,0,1-.48,1.3,5.13,5.13,0,0,1-.59.93c-.22.26-.4.46-.55.61s-.25.22-.29.21-.16-.07-.3-.21-.2-.23-.2-.29.08-.19.25-.37.35-.41.56-.68a4.27,4.27,0,0,0,.6-1.14,6.46,6.46,0,0,0,.36-1.66v-.27l0,0-.12.05a.42.42,0,0,0-.13.07.41.41,0,0,1-.21,0,1.24,1.24,0,0,0-.27,0,1.35,1.35,0,0,1-1-.39Z"/><path id="MJMATHI-62" d="M345.68,62.1a1.83,1.83,0,0,1,.09-.52c.07-.2.16-.29.28-.29l1.63-.12c1.08-.07,1.63-.12,1.66-.14.19,0,.28.07.28.21s-.26,1.22-.78,3.25c-.12.52-.25,1.05-.38,1.59s-.25,1-.34,1.23l-.09.43c0,.05,0,0,.13-.07a3.64,3.64,0,0,1,2.3-.91,2.79,2.79,0,0,1,2.27,1,4.12,4.12,0,0,1,.89,2.64,6.76,6.76,0,0,1-1.8,4.57,5.15,5.15,0,0,1-3.86,2,3,3,0,0,1-2.07-.87,3.74,3.74,0,0,1-1-2.8v-.2a6.16,6.16,0,0,1,.19-1.32c.12-.56.49-2,1.11-4.48.76-3,1.14-4.57,1.14-4.75s-.29-.29-.87-.32h-.59a.27.27,0,0,1-.16-.07A.15.15,0,0,1,345.68,62.1Zm6,7.33v-.14q0-1.68-1.38-1.68a2,2,0,0,0-.8.18,3,3,0,0,0-.75.48c-.23.19-.42.37-.59.54a3,3,0,0,0-.41.5l-.14.18-.47,2a12.66,12.66,0,0,0-.5,2.77,2.24,2.24,0,0,0,.54,1.64,1.24,1.24,0,0,0,.91.36,2.26,2.26,0,0,0,1.52-.72,3.82,3.82,0,0,0,.91-1.28,14.5,14.5,0,0,0,.75-2.38A10.87,10.87,0,0,0,351.66,69.43Z"/><path id="MJMAIN-29" d="M355.14,59.78l.09,0h.5l.64.55a11.24,11.24,0,0,1,3.12,4.82,18.58,18.58,0,0,1,1,6,19.26,19.26,0,0,1-.22,3,20.32,20.32,0,0,1-.53,2.43,9.26,9.26,0,0,1-.84,2c-.36.67-.65,1.18-.86,1.53a7.46,7.46,0,0,1-.93,1.16l-.73.75c-.08.07-.25.22-.53.43l-.09.09h-.52a.13.13,0,0,1-.11-.07.42.42,0,0,1-.07-.2l.25-.3q3.53-3.66,3.52-10.8t-3.52-10.8L355,60A.28.28,0,0,1,355.14,59.78Z"/><path id="MJMATHI-61-2" data-name="MJMATHI-61" d="M301.8,344.22a9.35,9.35,0,0,1,2.4-6.07,7.07,7.07,0,0,1,5.41-2.91,3.59,3.59,0,0,1,2.85,1.55,1.56,1.56,0,0,1,1.45-1,1.13,1.13,0,0,1,.73.25.78.78,0,0,1,.31.63c0,.28-.39,2-1.17,5.06s-1.18,4.85-1.2,5.25a1.77,1.77,0,0,0,.22,1.05.93.93,0,0,0,.67.28,1.32,1.32,0,0,0,.63-.28,7.21,7.21,0,0,0,1.3-3c.12-.42.23-.64.31-.66a1,1,0,0,1,.32,0h.13c.4,0,.6.09.6.28a5.62,5.62,0,0,1-.16.85,10.44,10.44,0,0,1-.63,1.71,5.39,5.39,0,0,1-1,1.58,3,3,0,0,1-1,.67,3.55,3.55,0,0,1-.76.06,3.3,3.3,0,0,1-1.8-.47,2.55,2.55,0,0,1-.95-1l-.19-.48s-.06,0-.12,0l-.13.13a5.54,5.54,0,0,1-3.8,1.77,4.27,4.27,0,0,1-3.06-1.27A5.3,5.3,0,0,1,301.8,344.22Zm10.05-5.41a3,3,0,0,0-.15-.7A3.11,3.11,0,0,0,311,337a2,2,0,0,0-1.46-.63,3,3,0,0,0-2.11,1,6.5,6.5,0,0,0-1.59,2.56,25,25,0,0,0-1.29,5.18v.35a1.74,1.74,0,0,1,0,.38,2.65,2.65,0,0,0,.57,2,2,2,0,0,0,1.36.57,3.59,3.59,0,0,0,2.37-1,5.39,5.39,0,0,0,1.39-1.62c0-.08.33-1.21.85-3.38S311.83,339,311.85,338.81Z"/><path id="MJMATHI-62-2" data-name="MJMATHI-62" d="M29.49,72a2.62,2.62,0,0,1,.13-.72c.08-.27.21-.41.37-.41l2.25-.15c1.48-.11,2.24-.17,2.28-.19.25,0,.37.09.37.28s-.35,1.68-1.06,4.46c-.16.71-.34,1.44-.53,2.19s-.34,1.31-.47,1.68l-.12.6c0,.06.06,0,.19-.1a5,5,0,0,1,3.15-1.25,3.84,3.84,0,0,1,3.12,1.44,5.68,5.68,0,0,1,1.22,3.62,9.29,9.29,0,0,1-2.47,6.27,7.07,7.07,0,0,1-5.3,2.81,4.07,4.07,0,0,1-2.84-1.19,5.11,5.11,0,0,1-1.32-3.83V87.2a9.54,9.54,0,0,1,.25-1.81q.25-1.15,1.53-6.15,1.56-6.15,1.56-6.52c0-.25-.39-.4-1.18-.44h-.81a.37.37,0,0,1-.22-.09A.2.2,0,0,1,29.49,72ZM37.7,82v-.18c0-1.54-.63-2.31-1.9-2.31a2.58,2.58,0,0,0-1.09.25,3.82,3.82,0,0,0-1,.65c-.32.27-.59.52-.82.75a4.85,4.85,0,0,0-.56.69l-.18.25-.66,2.68a17.89,17.89,0,0,0-.69,3.81,3.06,3.06,0,0,0,.75,2.25,1.72,1.72,0,0,0,1.25.5,3.13,3.13,0,0,0,2.09-1,5.32,5.32,0,0,0,1.25-1.75,20.65,20.65,0,0,0,1-3.28A15.6,15.6,0,0,0,37.7,82Z"/></g></g></svg>