<svg xmlns="http://www.w3.org/2000/svg" viewBox="0 0 224 21.36"><defs><style>.cls-1,.cls-2,.cls-3{fill:none;stroke:#000;stroke-miterlimit:10;}.cls-2{stroke-width:4px;}.cls-3{stroke-width:2px;}</style></defs><title>img02</title><g id="Ebene_2" data-name="Ebene 2"><g id="Ebene_1-2" data-name="Ebene 1"><g id="Ebene_2-2" data-name="Ebene 2"><g id="Ebene_1-2-2" data-name="Ebene 1-2"><line class="cls-1" y1="0.5" x2="224" y2="0.5"/><line class="cls-2" x1="45.5" y1="2" x2="167.5" y2="2"/><line class="cls-3" x1="45.5" y1="1" x2="45.5" y2="9"/><line class="cls-3" x1="166.5" y1="1" x2="166.5" y2="9"/><path id="MJMATHI-61" d="M42,18.25a4.14,4.14,0,0,1,1-2.68,3.16,3.16,0,0,1,2.38-1.28,1.63,1.63,0,0,1,1.26.68.7.7,0,0,1,.64-.42.47.47,0,0,1,.32.12.32.32,0,0,1,.14.27c0,.12-.17.87-.52,2.23a23.41,23.41,0,0,0-.53,2.32.82.82,0,0,0,.1.46.4.4,0,0,0,.29.12.7.7,0,0,0,.28-.12A3.09,3.09,0,0,0,48,18.61c.06-.19.11-.28.14-.29a.33.33,0,0,1,.14,0h.06c.17,0,.26,0,.26.13a1.51,1.51,0,0,1-.07.37,4.07,4.07,0,0,1-.28.76,2.19,2.19,0,0,1-.44.69,1.37,1.37,0,0,1-.45.3H47a1.49,1.49,0,0,1-.8-.2,1.18,1.18,0,0,1-.42-.44l-.08-.21h0l-.06.05a2.41,2.41,0,0,1-1.67.78A1.9,1.9,0,0,1,42.55,20,2.37,2.37,0,0,1,42,18.25Zm4.43-2.39a1.09,1.09,0,0,0-.07-.3,1.34,1.34,0,0,0-.32-.49.88.88,0,0,0-.64-.28,1.31,1.31,0,0,0-.93.43,3.16,3.16,0,0,0-.7,1.13,11.29,11.29,0,0,0-.57,2.29v.15a.49.49,0,0,1,0,.17,1.16,1.16,0,0,0,.26.86.83.83,0,0,0,.59.25,1.58,1.58,0,0,0,1-.46,2.2,2.2,0,0,0,.61-.71s.15-.53.38-1.49.34-1.47.35-1.55Z"/><path id="MJMATHI-62" d="M164.52,12.12a1.71,1.71,0,0,1,0-.32.18.18,0,0,1,.17-.18l1-.07,1-.08c.11,0,.17,0,.17.12s-.16.75-.47,2c-.08.31-.16.64-.24,1s-.13.5-.21.75l-.06.27H166a2.18,2.18,0,0,1,1.41-.56,1.71,1.71,0,0,1,1.39.64,2.55,2.55,0,0,1,.54,1.62,4.1,4.1,0,0,1-1.1,2.8,3.14,3.14,0,0,1-2.37,1.25,1.79,1.79,0,0,1-1.27-.53,2.28,2.28,0,0,1-.58-1.71V19a4.5,4.5,0,0,1,.11-.81c.07-.34.3-1.25.68-2.74.47-1.83.7-2.8.7-2.91s-.18-.18-.53-.2h-.46a.11.11,0,1,1,0-.21Zm3.66,4.49v-.08c0-.69-.28-1-.85-1a1,1,0,0,0-.48.12,1.7,1.7,0,0,0-.46.29l-.37.33a3.76,3.76,0,0,0-.25.31l-.08.11-.29,1.2a7.49,7.49,0,0,0-.31,1.7,1.35,1.35,0,0,0,.33,1,.79.79,0,0,0,.56.23,1.36,1.36,0,0,0,.94-.45,2.4,2.4,0,0,0,.55-.78,8.25,8.25,0,0,0,.46-1.46,6.61,6.61,0,0,0,.25-1.52Z"/></g></g></g></g></svg>