<svg xmlns="http://www.w3.org/2000/svg" viewBox="0 0 375 375"><defs><style>.cls-1,.cls-2,.cls-3{fill:none;stroke:#000;stroke-miterlimit:10;}.cls-1{stroke-width:2px;}.cls-3{stroke-dasharray:12.34 12.34;}</style></defs><title>img09</title><g id="Ebene_2" data-name="Ebene 2"><g id="Ebene_1-2" data-name="Ebene 1"><line class="cls-1" x1="49.5" y1="12.07" x2="49.5" y2="375"/><path d="M49.5,0C47.39,5.68,43.8,12.73,40,17.09l9.51-3.44L59,17.09C55.2,12.73,51.61,5.68,49.5,0Z"/><line class="cls-1" y1="325.5" x2="362.93" y2="325.5"/><path d="M375,325.5c-5.68,2.11-12.73,5.7-17.09,9.51l3.44-9.51L357.91,316C362.27,319.8,369.32,323.39,375,325.5Z"/><path id="MJMATHI-41" d="M26.18,20.29q0,.53,1,.6c.25,0,.38.08.38.24s0,.11,0,.28a1.12,1.12,0,0,1-.13.38c0,.06-.14.09-.28.09h-.26l-.72,0c-.34,0-.8,0-1.37,0-1,0-1.66,0-1.95.05h-.17a.41.41,0,0,1-.15-.24,1,1,0,0,1,.28-.75h.3a2.59,2.59,0,0,0,2.18-1.07c.09-.08,1.38-2.26,3.87-6.52l3.81-6.48a.55.55,0,0,1,.51-.26H34a1.42,1.42,0,0,1,.13.22l.6,6.9c.39,4.61.61,6.94.64,7s.53.23,1.39.23c.35,0,.53.07.53.22a2.32,2.32,0,0,1-.06.3,1.26,1.26,0,0,1-.11.38s-.13.07-.3.09h-.3l-.83,0q-.6,0-1.56,0c-1.34,0-2.22,0-2.63.05h-.26c-.09-.09-.13-.15-.13-.2a3.58,3.58,0,0,1,0-.38,1.57,1.57,0,0,1,.13-.34l.09-.07h.42c.77,0,1.23-.16,1.37-.36l-.25-3.21H27.79l-.73,1.24A7,7,0,0,0,26.18,20.29Zm6.59-4c0-.16-.09-1.27-.26-3.34s-.27-3.11-.3-3.12l-.57.92-1.35,2.28-1.93,3.26,2.21,0C32,16.34,32.77,16.33,32.77,16.32Z"/><path id="MJMATHI-42" d="M352.61,339.49a5,5,0,0,1-.7,0c-.07,0-.11-.09-.11-.24,0-.39.08-.62.24-.71s1,0,2.82,0c3.75,0,5.73,0,5.93,0a4.56,4.56,0,0,1,2.28,1,2.53,2.53,0,0,1,.93,2,3.27,3.27,0,0,1-1.26,2.5,6.65,6.65,0,0,1-2.88,1.5l-.22.06a4.19,4.19,0,0,1,2.28,1,2.67,2.67,0,0,1,.91,2,4.27,4.27,0,0,1-1.56,3.06,6.25,6.25,0,0,1-3.85,1.67c-.1,0-1.62,0-4.57,0s-4.37,0-4.41,0a.23.23,0,0,1-.09-.18,1,1,0,0,1,0-.3c.07-.28.14-.43.21-.46l.33,0h.13c.39,0,.82,0,1.3-.06a.6.6,0,0,0,.41-.27q.08-.08,1.57-6t1.49-6.27C353.84,339.59,353.43,339.52,352.61,339.49Zm9.07,2a2.34,2.34,0,0,0-.33-1.21,1.56,1.56,0,0,0-1.06-.74c-.1,0-.77-.05-2-.07h-.91a7.56,7.56,0,0,0-.76,0h-.28c-.22,0-.36.08-.41.21s-.26.93-.7,2.61a.32.32,0,0,1,0,.13l-.67,2.73h1.76c1.17,0,1.84,0,2,0a4.24,4.24,0,0,0,2.33-1.26A3.41,3.41,0,0,0,361.68,341.51Zm-1.17,6.84a2.5,2.5,0,0,0-.5-1.59,2,2,0,0,0-1.31-.73c-.08,0-.68,0-1.8,0-1.7,0-2.56,0-2.58,0s-.12.55-.37,1.58-.5,2.05-.76,3.06l-.39,1.52c0,.06.09.09.26.09l1.76,0c1.29,0,2,0,2.08,0a4.15,4.15,0,0,0,2.48-1.26A3.63,3.63,0,0,0,360.51,348.35Z"/><path class="cls-2" d="M73.19,349.78c0-110,109.82-237,205-237"/><line class="cls-2" x1="49.76" y1="325.26" x2="54.01" y2="321.02"/><line class="cls-3" x1="62.73" y1="312.3" x2="302.66" y2="72.37"/><line class="cls-2" x1="307.02" y1="68.01" x2="311.26" y2="63.76"/><path id="MJMAIN-393" d="M141.57,137.13a.69.69,0,0,0-.16-.13.65.65,0,0,0-.22,0l-.62-.05h-.47v-.65h7.55v.05c0,.06.09.61.2,1.66s.18,1.6.2,1.66v.05h-.57v-.05s0-.18-.06-.49a5,5,0,0,0-.21-1,1.82,1.82,0,0,0-.44-.75,3.05,3.05,0,0,0-2-.52h-.22c-.66,0-1.07,0-1.21,0s-.22.06-.23.17,0,1.37,0,4v4a.54.54,0,0,0,.17.13,1.78,1.78,0,0,0,.36.06q.28,0,.9,0h.38V146h-.17c-.23,0-1,0-2.37,0s-1.94,0-2.08,0h-.16v-.65h.47a5.16,5.16,0,0,0,.73-.05.45.45,0,0,0,.27-.17Z"/><path id="MJMATHI-66" d="M149.86,151.82l.06,0a.16.16,0,0,0,.11,0h.12a.3.3,0,0,0,.24-.13.75.75,0,0,0,.16-.29,15.36,15.36,0,0,0,.35-1.54c.16-.85.31-1.66.46-2.43s.22-1.15.22-1.16v0h-.47a2.22,2.22,0,0,1-.51,0,.13.13,0,0,1,0-.1l.07-.28a.09.09,0,0,1,.08-.05h1s0-.18.09-.51.1-.51.12-.58c.25-1.11.74-1.67,1.48-1.67a1,1,0,0,1,.61.23.66.66,0,0,1,.25.53.64.64,0,0,1-.22.53.83.83,0,0,1-.42.17c-.3,0-.44-.14-.44-.43a.49.49,0,0,1,.11-.33.79.79,0,0,1,.24-.21l.09-.05a.89.89,0,0,0-.3-.06.36.36,0,0,0-.24.1.58.58,0,0,0-.15.28c0,.2-.1.46-.16.79s-.11.61-.16.84-.07.35-.07.36a3.22,3.22,0,0,0,.55,0h.53a.2.2,0,0,1,.11.06.4.4,0,0,1,0,.17.75.75,0,0,1,0,.16s0,0-.09,0h-1.11l-.23,1.23c-.33,1.67-.55,2.72-.68,3.13a2.92,2.92,0,0,1-.71,1.27,1.1,1.1,0,0,1-.73.33,1,1,0,0,1-.59-.19.71.71,0,0,1,.38-1.27.39.39,0,0,1,.44.43.52.52,0,0,1-.11.33.75.75,0,0,1-.24.21Z"/><path id="MJMAIN-2212" d="M155,144.13V144a.18.18,0,0,1,.1-.15h4.15a.18.18,0,0,1,.11.15c0,.05,0,.1-.11.14H155.1a.16.16,0,0,1-.1-.14Z"/><path id="MJMAIN-31" d="M161.48,141.7l-.1,0a1.13,1.13,0,0,1-.28.07,2.55,2.55,0,0,1-.42,0h-.13v-.33h.13a2.37,2.37,0,0,0,.62-.1,1.61,1.61,0,0,0,.4-.17l.2-.16s0,0,.09,0a.19.19,0,0,1,.12,0v4.28l.08.06.18,0H163v.33h-.08c-.1,0-.47,0-1.13,0s-1,0-1.12,0h-.09v-.33h.64l.11,0h.06l0,0s0,0,0,0Z"/></g></g></svg>