<svg xmlns="http://www.w3.org/2000/svg" viewBox="0 0 375 375"><defs><style>.cls-1,.cls-2,.cls-3{fill:none;stroke:#000;stroke-miterlimit:10;}.cls-1{stroke-width:2px;}.cls-3{stroke-dasharray:12.34 12.34;}</style></defs><title>img08</title><g id="Ebene_2" data-name="Ebene 2"><g id="Ebene_1-2" data-name="Ebene 1"><line class="cls-1" x1="49.5" y1="12.07" x2="49.5" y2="375"/><path d="M49.5,0C47.39,5.68,43.8,12.73,40,17.09l9.51-3.44L59,17.09C55.2,12.73,51.61,5.68,49.5,0Z"/><line class="cls-1" y1="325.5" x2="362.93" y2="325.5"/><path d="M375,325.5c-5.68,2.11-12.73,5.7-17.09,9.51l3.44-9.51L357.91,316C362.27,319.8,369.32,323.39,375,325.5Z"/><path id="MJMATHI-41" d="M362.18,350.29q0,.52,1,.6c.25,0,.38.08.38.24s0,.11,0,.28a1.12,1.12,0,0,1-.13.38c0,.06-.14.09-.28.09h-.26l-.72,0c-.34,0-.8,0-1.37,0-1,0-1.66,0-1.95.05h-.17a.41.41,0,0,1-.15-.24,1,1,0,0,1,.28-.75h.3a2.59,2.59,0,0,0,2.18-1.07c.09-.08,1.38-2.26,3.87-6.52l3.81-6.48a.55.55,0,0,1,.51-.26H370a1.42,1.42,0,0,1,.13.22l.6,6.9c.39,4.61.61,6.94.64,7s.53.23,1.39.23c.35,0,.53.07.53.22a2.32,2.32,0,0,1-.06.3,1.26,1.26,0,0,1-.11.38s-.13.07-.3.09h-.3l-.83,0q-.6,0-1.56,0c-1.34,0-2.22,0-2.63.05h-.26c-.09-.09-.13-.15-.13-.2a3.58,3.58,0,0,1,0-.38,1.57,1.57,0,0,1,.13-.34l.09-.07h.42c.77,0,1.23-.16,1.37-.36l-.25-3.21h-5.09l-.73,1.24A7,7,0,0,0,362.18,350.29Zm6.59-4c0-.16-.09-1.27-.26-3.34s-.27-3.11-.3-3.12l-.57.92-1.35,2.28-1.93,3.26,2.21,0C368,346.34,368.77,346.33,368.77,346.32Z"/><path id="MJMATHI-42" d="M22.61,8.49a5,5,0,0,1-.7,0c-.07,0-.11-.09-.11-.24,0-.39.08-.62.24-.71s1,0,2.82,0c3.75,0,5.73,0,5.93,0a4.56,4.56,0,0,1,2.28,1,2.53,2.53,0,0,1,.93,2A3.27,3.27,0,0,1,32.74,13a6.65,6.65,0,0,1-2.88,1.5l-.22.06a4.19,4.19,0,0,1,2.28,1,2.67,2.67,0,0,1,.91,2,4.27,4.27,0,0,1-1.56,3.06,6.25,6.25,0,0,1-3.85,1.67c-.1,0-1.62,0-4.57,0s-4.37,0-4.41,0a.23.23,0,0,1-.09-.18,1,1,0,0,1,0-.3c.07-.28.14-.43.21-.46l.33,0h.13c.39,0,.82,0,1.3-.06a.6.6,0,0,0,.41-.27s.57-2.06,1.57-6,1.49-6.05,1.49-6.27S23.43,8.52,22.61,8.49Zm9.07,2a2.34,2.34,0,0,0-.33-1.21,1.56,1.56,0,0,0-1.06-.74c-.1,0-.77-.05-2-.07h-.91a7.56,7.56,0,0,0-.76,0h-.28c-.22,0-.36.08-.41.21s-.26.93-.7,2.61a.32.32,0,0,1,0,.13l-.67,2.73H26.3c1.17,0,1.84,0,2,0a4.24,4.24,0,0,0,2.33-1.26A3.41,3.41,0,0,0,31.68,10.51Zm-1.17,6.84a2.5,2.5,0,0,0-.5-1.59A2,2,0,0,0,28.7,15c-.08,0-.68,0-1.8,0-1.7,0-2.56,0-2.58,0s-.12.55-.37,1.58-.5,2.05-.76,3.06l-.39,1.52c0,.06.09.09.26.09l1.76,0c1.29,0,2,0,2.08,0A4.15,4.15,0,0,0,29.38,20,3.63,3.63,0,0,0,30.51,17.35Z"/><path class="cls-2" d="M24.76,300.26c110,0,237-109.82,237-205"/><line class="cls-2" x1="49.76" y1="325.26" x2="54.01" y2="321.02"/><line class="cls-3" x1="62.73" y1="312.3" x2="302.66" y2="72.37"/><line class="cls-2" x1="307.02" y1="68.01" x2="311.26" y2="63.76"/><path id="MJMAIN-393" d="M225.23,213.63a.63.63,0,0,0-.18-.14.82.82,0,0,0-.26-.05l-.7-.05h-.54v-.75h8.64v.06c0,.07.1.7.23,1.9s.21,1.83.23,1.89v.07H232v-.07s0-.19-.07-.55a5.61,5.61,0,0,0-.25-1.1,1.85,1.85,0,0,0-.5-.86,3.47,3.47,0,0,0-2.34-.59h-.24c-.76,0-1.23,0-1.39,0s-.25.07-.26.19,0,1.57,0,4.61l0,4.54a.67.67,0,0,0,.2.14,1.36,1.36,0,0,0,.4.07c.22,0,.56,0,1,0H229v.75h-.19c-.26,0-1.17-.05-2.71-.05s-2.22,0-2.39.05h-.18V223h.54a6.37,6.37,0,0,0,.83-.05.58.58,0,0,0,.31-.19Z"/><path id="MJMATHI-66" d="M234.71,228.14l.07,0a.4.4,0,0,0,.13,0h.14a.34.34,0,0,0,.27-.15.92.92,0,0,0,.19-.33,15,15,0,0,0,.39-1.77c.19-1,.36-1.89.53-2.77s.26-1.32.26-1.33v0h-.55a2.31,2.31,0,0,1-.57,0,.13.13,0,0,1,0-.11l.08-.33a.11.11,0,0,1,.09-.05h.55a3.22,3.22,0,0,0,.55,0s0-.2.1-.57.12-.6.14-.67c.29-1.27.85-1.91,1.69-1.91a1.15,1.15,0,0,1,.7.26.84.84,0,0,1,0,1.21.84.84,0,0,1-.49.19c-.34,0-.5-.16-.5-.48a.62.62,0,0,1,.12-.38.88.88,0,0,1,.28-.24l.1-.06a.9.9,0,0,0-.34-.07.43.43,0,0,0-.27.11.65.65,0,0,0-.17.33c-.06.22-.12.52-.19.9l-.18,1a4.16,4.16,0,0,0-.08.41,2.51,2.51,0,0,0,.63,0h.6a.16.16,0,0,1,.13.07.5.5,0,0,1,0,.19l-.06.19s-.05.05-.1.05l-.63,0h-.64l-.27,1.4c-.37,1.91-.63,3.11-.77,3.58a3.46,3.46,0,0,1-.81,1.46,1.36,1.36,0,0,1-.84.37,1.14,1.14,0,0,1-.67-.22.74.74,0,0,1-.3-.62.77.77,0,0,1,.24-.63.75.75,0,0,1,.48-.19q.51,0,.51.48a.57.57,0,0,1-.13.38.76.76,0,0,1-.27.24Z"/></g></g></svg>