<svg xmlns="http://www.w3.org/2000/svg" viewBox="0 0 375 375"><defs><style>.cls-1,.cls-2,.cls-3,.cls-4{fill:none;stroke:#000;stroke-miterlimit:10;}.cls-1{stroke-width:2px;}.cls-3{stroke-dasharray:11.81 11.81;}.cls-4{stroke-dasharray:12;}</style></defs><title>img03</title><g id="Ebene_2" data-name="Ebene 2"><g id="Ebene_1-2" data-name="Ebene 1"><line class="cls-1" x1="49.5" y1="12.07" x2="49.5" y2="375"/><path d="M49.5,0C47.39,5.68,43.8,12.73,40,17.09l9.51-3.44L59,17.09C55.2,12.73,51.61,5.68,49.5,0Z"/><line class="cls-1" y1="325.5" x2="362.93" y2="325.5"/><path d="M375,325.5c-5.68,2.11-12.73,5.7-17.09,9.51l3.44-9.51L357.91,316C362.27,319.8,369.32,323.39,375,325.5Z"/><line class="cls-2" x1="49.5" y1="80" x2="55.5" y2="80"/><line class="cls-3" x1="67.31" y1="80" x2="297.6" y2="80"/><line class="cls-2" x1="303.5" y1="80" x2="309.5" y2="80"/><line class="cls-4" x1="309.5" y1="80" x2="309.5" y2="325"/><path id="MJMAIN-28" d="M286.31,61.57a18.57,18.57,0,0,1,.23-3,19.64,19.64,0,0,1,.52-2.42,9,9,0,0,1,.83-2c.36-.65.65-1.16.86-1.52a6,6,0,0,1,.95-1.17c.42-.42.67-.68.74-.77a4.29,4.29,0,0,1,.57-.47h.38c.21,0,.32.07.32.2s-.13.2-.39.47a11.57,11.57,0,0,0-.92,1.2,17.12,17.12,0,0,0-1.11,1.94,13.39,13.39,0,0,0-1,3.12,23.25,23.25,0,0,0-.38,4.35,23,23,0,0,0,.38,4.34,15.1,15.1,0,0,0,.93,3.14A10.28,10.28,0,0,0,290.38,71c.37.5.69.89.94,1.19a5.25,5.25,0,0,1,.39.48c0,.13-.12.2-.34.2H291l-.63-.54a11.1,11.1,0,0,1-3.1-4.79A18.61,18.61,0,0,1,286.31,61.57Z"/><path id="MJMATHI-78" d="M294.15,60.69a4.86,4.86,0,0,1,1.21-2.19A3.42,3.42,0,0,1,298,57.24a2.72,2.72,0,0,1,1.45.41,2.67,2.67,0,0,1,1,1,2.71,2.71,0,0,1,2.28-1.42,2.19,2.19,0,0,1,1.44.5,1.69,1.69,0,0,1,.64,1.33,1.67,1.67,0,0,1-.32,1.06,1.34,1.34,0,0,1-.61.5,1.83,1.83,0,0,1-.52.09,1,1,0,0,1-.7-.25.87.87,0,0,1-.27-.66,1.44,1.44,0,0,1,1.13-1.42,1.17,1.17,0,0,0-.9-.29,1.51,1.51,0,0,0-.43,0,2.38,2.38,0,0,0-1.27,1.49,41.18,41.18,0,0,0-1.35,5.83,1.05,1.05,0,0,0,.36.9,1.28,1.28,0,0,0,.79.27,2.47,2.47,0,0,0,1.65-.74,3.75,3.75,0,0,0,1.1-1.83c.05-.15.09-.24.14-.25a1.79,1.79,0,0,1,.36-.05H304c.23,0,.34.06.34.19l-.05.24a4.9,4.9,0,0,1-1.4,2.28,3.34,3.34,0,0,1-2.41,1A2.6,2.6,0,0,1,298.1,66a2.59,2.59,0,0,1-2.13,1.4h-.13a1.91,1.91,0,0,1-1.58-.58,2.08,2.08,0,0,1-.5-1.24,1.62,1.62,0,0,1,.43-1.18,1.37,1.37,0,0,1,1-.45.85.85,0,0,1,1,.95,1.24,1.24,0,0,1-.27.79,1.69,1.69,0,0,1-.52.45,1.1,1.1,0,0,1-.3.11l-.06,0s0,0,.13.09l.36.15a.85.85,0,0,0,.43.07,1.67,1.67,0,0,0,1.4-1,8.05,8.05,0,0,0,.52-1.54c.21-.78.42-1.59.63-2.44s.33-1.34.36-1.49a5.12,5.12,0,0,0,.12-.88,1.1,1.1,0,0,0-.34-.9,1.21,1.21,0,0,0-.77-.27,2.46,2.46,0,0,0-1.69.72,3.83,3.83,0,0,0-1.11,1.85c0,.14-.07.21-.11.23a2.6,2.6,0,0,1-.36,0h-.32A.36.36,0,0,1,294.15,60.69Z"/><path id="MJMAIN-31" d="M309.28,61.39l-.2.08a3.68,3.68,0,0,1-.64.16,6.25,6.25,0,0,1-.93.11h-.3V61h.3a5.12,5.12,0,0,0,1.39-.24,4,4,0,0,0,.89-.38c.17-.12.32-.24.45-.35s.09,0,.19,0a.44.44,0,0,1,.27.09v4.78l0,4.78a.55.55,0,0,0,.19.15,1.94,1.94,0,0,0,.38.06q.31,0,1,0h.42v.74h-.18c-.22,0-1.07-.05-2.53-.05s-2.29,0-2.51.05h-.19v-.74h1.42l.25-.05.13,0,.1-.08c.05,0,.08-.08.09-.07Z"/><path id="MJMAIN-2C" d="M317.89,66.43v-.57a1.38,1.38,0,0,1,.37-1,1.22,1.22,0,0,1,1-.4,1.47,1.47,0,0,1,1.12.56,3,3,0,0,1,.52,2,5.59,5.59,0,0,1-.2,1.53,6.61,6.61,0,0,1-.47,1.29,5.13,5.13,0,0,1-.59.93q-.32.38-.54.6c-.15.16-.25.22-.3.21s-.15-.07-.29-.21-.2-.23-.2-.29.08-.18.25-.36.35-.41.56-.68a4.19,4.19,0,0,0,.59-1.13,6.49,6.49,0,0,0,.36-1.64V67l0,0-.12,0-.13.07a.41.41,0,0,1-.21,0,1.23,1.23,0,0,0-.27,0,1.34,1.34,0,0,1-1-.39Z"/><path id="MJMATHI-78-2" data-name="MJMATHI-78" d="M327.38,60.69a4.86,4.86,0,0,1,1.21-2.19,3.42,3.42,0,0,1,2.62-1.26,2.72,2.72,0,0,1,1.45.41,2.67,2.67,0,0,1,1,1,2.71,2.71,0,0,1,2.28-1.42,2.19,2.19,0,0,1,1.44.5,1.69,1.69,0,0,1,.64,1.33,1.67,1.67,0,0,1-.32,1.06,1.34,1.34,0,0,1-.61.5,1.83,1.83,0,0,1-.52.09,1,1,0,0,1-.7-.25.87.87,0,0,1-.27-.66,1.44,1.44,0,0,1,1.13-1.42,1.17,1.17,0,0,0-.9-.29,1.51,1.51,0,0,0-.43,0,2.35,2.35,0,0,0-1.27,1.49,41.18,41.18,0,0,0-1.35,5.83,1.05,1.05,0,0,0,.36.9,1.28,1.28,0,0,0,.79.27,2.47,2.47,0,0,0,1.65-.74,3.75,3.75,0,0,0,1.1-1.83c.05-.15.09-.24.14-.25a1.79,1.79,0,0,1,.36-.05h.09c.23,0,.34.06.34.19l-.05.24a4.9,4.9,0,0,1-1.4,2.28,3.34,3.34,0,0,1-2.41,1A2.6,2.6,0,0,1,331.33,66a2.59,2.59,0,0,1-2.13,1.4h-.13a1.91,1.91,0,0,1-1.58-.58,2.08,2.08,0,0,1-.5-1.24,1.62,1.62,0,0,1,.43-1.18,1.37,1.37,0,0,1,1-.45.85.85,0,0,1,1,.95,1.24,1.24,0,0,1-.27.79,1.69,1.69,0,0,1-.52.45,1.1,1.1,0,0,1-.3.11l-.06,0s0,0,.13.09l.36.15a.85.85,0,0,0,.43.07,1.67,1.67,0,0,0,1.4-1,8.05,8.05,0,0,0,.52-1.54c.21-.78.42-1.59.63-2.44s.33-1.34.36-1.49a5.12,5.12,0,0,0,.12-.88,1.1,1.1,0,0,0-.34-.9,1.21,1.21,0,0,0-.77-.27,2.46,2.46,0,0,0-1.69.72,3.83,3.83,0,0,0-1.11,1.85c0,.14-.07.21-.11.23a2.6,2.6,0,0,1-.36,0h-.32A.36.36,0,0,1,327.38,60.69Z"/><path id="MJMAIN-32" d="M340.85,63.77a.84.84,0,0,1-.68-.29,1,1,0,0,1-.26-.7,2.64,2.64,0,0,1,.85-2,2.88,2.88,0,0,1,2.1-.83,3.48,3.48,0,0,1,2.43.89,3.06,3.06,0,0,1,1,2.32,2.91,2.91,0,0,1-.32,1.31,4.49,4.49,0,0,1-.77,1.08c-.29.31-.72.7-1.27,1.18-.39.33-.92.82-1.6,1.47l-.94.89,1.21,0a19.92,19.92,0,0,0,2.67-.08,4.42,4.42,0,0,0,.38-1.42V67.6h.64v.05s-.08.52-.21,1.45a12.67,12.67,0,0,1-.24,1.47v.05h-5.92v-.5a.4.4,0,0,1,.1-.24c.06-.08.22-.27.48-.55l.79-.9.55-.59.54-.59.46-.53q.32-.36.45-.54c.08-.12.21-.28.37-.48a2.36,2.36,0,0,0,.33-.51c.07-.14.14-.29.24-.46a1.84,1.84,0,0,0,.21-.51c0-.17.08-.33.11-.48a2.73,2.73,0,0,0,0-.53,2.86,2.86,0,0,0-.54-1.74,1.82,1.82,0,0,0-1.55-.73,1.64,1.64,0,0,0-.93.27,2.06,2.06,0,0,0-.56.53,1.49,1.49,0,0,0-.16.3s0,0,.08,0a1,1,0,0,1,.59.22.83.83,0,0,1,.31.73.94.94,0,0,1-.26.67A1,1,0,0,1,340.85,63.77Z"/><path id="MJMAIN-29" d="M350.72,50.31l.09,0h.49l.64.54A11.17,11.17,0,0,1,355,55.62a18.32,18.32,0,0,1,1,6,18.89,18.89,0,0,1-.23,3,20.48,20.48,0,0,1-.51,2.42,10.49,10.49,0,0,1-.84,2c-.36.67-.65,1.17-.86,1.52a7.3,7.3,0,0,1-.92,1.15c-.41.42-.65.67-.73.74a4.18,4.18,0,0,1-.52.43l-.09.09h-.51a.13.13,0,0,1-.12-.07.57.57,0,0,1-.07-.2,3.22,3.22,0,0,0,.25-.29q3.51-3.64,3.5-10.73t-3.5-10.72a3.22,3.22,0,0,0-.25-.29A.27.27,0,0,1,350.72,50.31Z"/><path id="MJMATHI-78-3" data-name="MJMATHI-78" d="M301.3,337.29a6.64,6.64,0,0,1,1.68-3,4.67,4.67,0,0,1,3.63-1.75,3.75,3.75,0,0,1,2,.56,3.63,3.63,0,0,1,1.35,1.41,3.78,3.78,0,0,1,3.16-2,3.06,3.06,0,0,1,2,.69A2.38,2.38,0,0,1,316,335a2.32,2.32,0,0,1-.44,1.47,1.82,1.82,0,0,1-.85.69,2.62,2.62,0,0,1-.72.13,1.39,1.39,0,0,1-1-.35,1.16,1.16,0,0,1-.37-.9,2,2,0,0,1,1.56-2,1.54,1.54,0,0,0-1.25-.41,2.07,2.07,0,0,0-.59.06,3.22,3.22,0,0,0-1.75,2.07,55.56,55.56,0,0,0-1.88,8.06,1.48,1.48,0,0,0,.5,1.26,1.77,1.77,0,0,0,1.09.37,3.38,3.38,0,0,0,2.29-1,5.21,5.21,0,0,0,1.53-2.53c.06-.21.13-.33.19-.35a3.06,3.06,0,0,1,.5-.06H315c.32,0,.47.08.47.25,0,0,0,.13-.06.34a6.88,6.88,0,0,1-1.94,3.16,4.68,4.68,0,0,1-3.35,1.38,3.6,3.6,0,0,1-3.31-2,3.61,3.61,0,0,1-2.94,1.94h-.19a2.64,2.64,0,0,1-2.19-.82,2.83,2.83,0,0,1-.69-1.72,2.24,2.24,0,0,1,.6-1.62,1.86,1.86,0,0,1,1.41-.63,1.18,1.18,0,0,1,1.34,1.32,1.69,1.69,0,0,1-.37,1.09,2.32,2.32,0,0,1-.72.63,1.93,1.93,0,0,1-.41.15l-.09,0s.06.07.18.13l.5.22a1.29,1.29,0,0,0,.6.09,2.32,2.32,0,0,0,1.94-1.41,12.3,12.3,0,0,0,.72-2.12c.29-1.09.58-2.21.87-3.38s.46-1.86.5-2.07a7,7,0,0,0,.16-1.22,1.52,1.52,0,0,0-.47-1.25,1.65,1.65,0,0,0-1.06-.37,3.41,3.41,0,0,0-2.35,1,5.33,5.33,0,0,0-1.53,2.56c0,.19-.1.3-.16.32a3.06,3.06,0,0,1-.5.06h-.44A.54.54,0,0,1,301.3,337.29Z"/><path id="MJMAIN-31-2" data-name="MJMAIN-31" d="M322.27,338.25l-.29.11a5.3,5.3,0,0,1-.88.22,9.27,9.27,0,0,1-1.29.16h-.42v-1h.42a7.28,7.28,0,0,0,1.93-.33,5.34,5.34,0,0,0,1.24-.53,4.5,4.5,0,0,0,.61-.49s.12-.06.27-.06a.62.62,0,0,1,.38.13v6.61l0,6.64a.88.88,0,0,0,.26.19,2.67,2.67,0,0,0,.53.09c.28,0,.74,0,1.38,0H327v1h-.24c-.31,0-1.48-.06-3.52-.06s-3.16,0-3.47.06h-.27v-1h1.42a3.91,3.91,0,0,0,.55,0,1.93,1.93,0,0,0,.36-.06l.17-.05s.06,0,.14-.11.11-.1.13-.08Z"/><path id="MJMATHI-78-4" data-name="MJMATHI-78" d="M9,74.7a7,7,0,0,1,1.73-3.12,4.83,4.83,0,0,1,3.74-1.8,3.79,3.79,0,0,1,2.06.58A3.66,3.66,0,0,1,18,71.8a3.9,3.9,0,0,1,3.26-2,3.17,3.17,0,0,1,2.06.7,2.59,2.59,0,0,1,.45,3.42,2,2,0,0,1-.87.71,2.76,2.76,0,0,1-.74.12,1.4,1.4,0,0,1-1-.35,1.21,1.21,0,0,1-.39-.93,2,2,0,0,1,1.61-2A1.6,1.6,0,0,0,21.05,71a2.32,2.32,0,0,0-.62.06,3.43,3.43,0,0,0-1.8,2.13A57.76,57.76,0,0,0,16.7,81.5a1.49,1.49,0,0,0,.51,1.28,1.84,1.84,0,0,0,1.13.39,3.46,3.46,0,0,0,2.35-1.06,5.41,5.41,0,0,0,1.58-2.61c.06-.21.13-.33.19-.35a2.22,2.22,0,0,1,.52-.07h.13c.32,0,.48.09.48.26,0,0,0,.14-.06.35a7.17,7.17,0,0,1-2,3.26,4.86,4.86,0,0,1-3.45,1.41,3.69,3.69,0,0,1-3.41-2,3.71,3.71,0,0,1-3,2h-.19a2.72,2.72,0,0,1-2.25-.84,3,3,0,0,1-.71-1.77,2.32,2.32,0,0,1,.61-1.67,1.94,1.94,0,0,1,1.45-.65,1.21,1.21,0,0,1,1.38,1.36,1.76,1.76,0,0,1-.38,1.12,2.21,2.21,0,0,1-.74.65,2.61,2.61,0,0,1-.42.16l-.1,0s.07.06.19.13.3.14.52.22a1.23,1.23,0,0,0,.61.1,2.38,2.38,0,0,0,2-1.45,11.5,11.5,0,0,0,.74-2.19q.45-1.66.9-3.48c.3-1.2.47-1.91.52-2.12a8.8,8.8,0,0,0,.16-1.26,1.51,1.51,0,0,0-.49-1.28A1.68,1.68,0,0,0,14.35,71a3.52,3.52,0,0,0-2.42,1,5.52,5.52,0,0,0-1.57,2.64c0,.19-.1.3-.17.32a2.66,2.66,0,0,1-.51.07H9.23A.53.53,0,0,1,9,74.7Z"/><path id="MJMAIN-32-2" data-name="MJMAIN-32" d="M28.26,79.09a1.25,1.25,0,0,1-1-.41,1.46,1.46,0,0,1-.36-1,3.8,3.8,0,0,1,1.2-2.8,4.13,4.13,0,0,1,3-1.18A4.93,4.93,0,0,1,34.59,75,4.38,4.38,0,0,1,36,78.27a4,4,0,0,1-.46,1.87,6.25,6.25,0,0,1-1.09,1.55c-.42.44-1,1-1.82,1.68-.55.47-1.3,1.17-2.28,2.1L29,86.74l1.73,0a28.94,28.94,0,0,0,3.8-.11,6.11,6.11,0,0,0,.55-2v-.07H36v.07s-.11.74-.3,2.07a15.75,15.75,0,0,1-.34,2.1v.07H26.92v-.71a.58.58,0,0,1,.13-.34c.09-.12.32-.39.69-.8s.82-.91,1.13-1.27l.78-.84c.38-.41.64-.69.77-.85l.66-.75c.31-.35.52-.6.64-.77s.3-.4.52-.68a4,4,0,0,0,.48-.73c.09-.2.21-.42.34-.66a3,3,0,0,0,.3-.73c.06-.24.11-.47.16-.68a4.19,4.19,0,0,0,.07-.76,4.05,4.05,0,0,0-.78-2.48,2.56,2.56,0,0,0-2.21-1,2.27,2.27,0,0,0-1.32.38,2.73,2.73,0,0,0-.79.75,1.77,1.77,0,0,0-.23.44s0,0,.11,0a1.45,1.45,0,0,1,.85.32,1.22,1.22,0,0,1,.43,1,1.33,1.33,0,0,1-.37,1A1.37,1.37,0,0,1,28.26,79.09Z"/></g></g></svg>