<svg xmlns="http://www.w3.org/2000/svg" viewBox="0 0 362.26 364.5"><defs><style>.cls-1,.cls-2{fill:none;stroke:#000;stroke-miterlimit:10;}.cls-1{stroke-width:2px;}</style></defs><title>img4</title><g id="Ebene_2" data-name="Ebene 2"><g id="Ebene_1-2" data-name="Ebene 1"><line class="cls-1" x1="24.5" y1="26.57" x2="24.5" y2="364.5"/><path d="M24.5,14.5C22.39,20.18,18.8,27.23,15,31.6l9.51-3.44L34,31.6C30.2,27.23,26.61,20.18,24.5,14.5Z"/><line class="cls-1" y1="340" x2="337.93" y2="340"/><path d="M350,340c-5.68,2.11-12.73,5.71-17.09,9.52l3.44-9.52-3.44-9.51C337.27,334.3,344.32,337.9,350,340Z"/><path id="MJMATHI-41" d="M351.18,362.8q0,.51,1,.6c.25,0,.38.08.38.23a2.63,2.63,0,0,1,0,.28,1.21,1.21,0,0,1-.13.39.37.37,0,0,1-.28.08h-.26l-.72,0-1.37,0c-1,0-1.66,0-1.95,0h-.17c-.1-.1-.15-.18-.15-.23a1,1,0,0,1,.28-.75h.3a2.61,2.61,0,0,0,2.18-1.07c.09-.09,1.38-2.26,3.87-6.53l3.81-6.48a.55.55,0,0,1,.51-.26H359a1.42,1.42,0,0,1,.13.22l.6,6.91c.39,4.6.61,6.93.64,7s.53.24,1.39.24c.35,0,.53.07.53.21a2.32,2.32,0,0,1-.06.3,1.49,1.49,0,0,1-.11.39s-.13.07-.3.08h-.3l-.83,0-1.56,0c-1.34,0-2.22,0-2.63,0h-.26a.33.33,0,0,1-.13-.19s0-.17,0-.39a1.84,1.84,0,0,1,.13-.34l.09-.06h.42c.77,0,1.23-.17,1.37-.37l-.25-3.21h-5.09l-.73,1.25A6.8,6.8,0,0,0,351.18,362.8Zm6.59-4c0-.16-.09-1.27-.26-3.34s-.27-3.11-.3-3.12l-.57.92c-.23.38-.68,1.15-1.35,2.29l-1.93,3.25,2.21,0C357,358.84,357.77,358.83,357.77,358.82Z"/><path id="MJMATHI-42" d="M6.61,1C6.22,1,6,1,5.91,1S5.8.88,5.8.74Q5.8.16,6,0S7,0,8.86,0c3.75,0,5.73,0,5.93,0a4.65,4.65,0,0,1,2.28,1A2.55,2.55,0,0,1,18,3a3.27,3.27,0,0,1-1.26,2.49A6.65,6.65,0,0,1,13.86,7l-.22.06a4.26,4.26,0,0,1,2.28,1,2.69,2.69,0,0,1,.91,2,4.24,4.24,0,0,1-1.56,3.06,6.25,6.25,0,0,1-3.85,1.67c-.1,0-1.62,0-4.57,0s-4.37,0-4.41,0a.2.2,0,0,1-.09-.18,1,1,0,0,1,0-.3c.07-.27.14-.43.21-.45a1.21,1.21,0,0,1,.33,0h.13c.39,0,.82,0,1.3-.06a.56.56,0,0,0,.41-.26q.08-.09,1.57-6T7.84,1.19C7.84,1.09,7.43,1,6.61,1Zm9.07,2a2.38,2.38,0,0,0-.33-1.22,1.59,1.59,0,0,0-1.06-.74c-.1,0-.77-.05-2-.06h-.91l-.76,0h-.28c-.22,0-.36.09-.41.22s-.26.92-.7,2.6a.3.3,0,0,1,0,.13L8.54,6.71H10.3c1.17,0,1.84,0,2,0A4.12,4.12,0,0,0,14.64,5.4,3.41,3.41,0,0,0,15.68,3ZM14.51,9.85A2.49,2.49,0,0,0,14,8.27a2,2,0,0,0-1.31-.74c-.08,0-.68,0-1.8,0-1.7,0-2.56,0-2.58,0S8.2,8.09,8,9.11s-.5,2.05-.76,3.06L6.8,13.69c0,.06.09.09.26.09l1.76,0c1.29,0,2,0,2.08,0a4.15,4.15,0,0,0,2.48-1.26A3.62,3.62,0,0,0,14.51,9.85Z"/><path class="cls-2" d="M287.76,107.77c1.31-.93-516,52.35,0,109"/></g></g></svg>