<svg xmlns="http://www.w3.org/2000/svg" viewBox="0 0 387.26 389.5"><defs><style>.cls-1,.cls-2{fill:none;stroke-miterlimit:10;}.cls-1,.cls-2,.cls-3{stroke:#000;}.cls-1{stroke-width:2px;}</style></defs><title>img07</title><g id="Ebene_2" data-name="Ebene 2"><g id="Ebene_1-2" data-name="Ebene 1"><line class="cls-1" x1="49.5" y1="26.57" x2="49.5" y2="389.5"/><path d="M49.5,14.5C47.39,20.18,43.8,27.23,40,31.6l9.51-3.44L59,31.6C55.2,27.23,51.61,20.18,49.5,14.5Z"/><line class="cls-1" y1="340" x2="362.93" y2="340"/><path d="M375,340c-5.68,2.11-12.73,5.71-17.09,9.52l3.44-9.52-3.44-9.51C362.27,334.3,369.32,337.9,375,340Z"/><path id="MJMAIN-28" d="M245.15,137.63a18.85,18.85,0,0,1,.22-3,19.89,19.89,0,0,1,.53-2.44,8.86,8.86,0,0,1,.84-2c.36-.65.65-1.16.86-1.52a5.53,5.53,0,0,1,1-1.18l.75-.78a3.61,3.61,0,0,1,.57-.48h.38c.21,0,.32.07.32.21s-.13.2-.39.48a11.71,11.71,0,0,0-.93,1.2,15.91,15.91,0,0,0-1.11,2,12.93,12.93,0,0,0-1,3.14,22.69,22.69,0,0,0-.38,4.38,22.44,22.44,0,0,0,.38,4.37,15.14,15.14,0,0,0,.93,3.16,10.74,10.74,0,0,0,1.12,2c.38.5.7.9.95,1.2a4,4,0,0,1,.39.48c0,.14-.11.2-.34.2h-.36l-.64-.54a11.3,11.3,0,0,1-3.12-4.82A18.68,18.68,0,0,1,245.15,137.63Z"/><path id="MJMATHI-61" d="M252.6,139.75a6.75,6.75,0,0,1,1.73-4.37,5.1,5.1,0,0,1,3.89-2.09,2.57,2.57,0,0,1,2,1.12,1.13,1.13,0,0,1,1-.69.8.8,0,0,1,.53.19.55.55,0,0,1,.22.45c0,.2-.28,1.41-.84,3.64s-.85,3.48-.86,3.77a1.18,1.18,0,0,0,.16.75.67.67,0,0,0,.47.21,1.09,1.09,0,0,0,.46-.21,5.08,5.08,0,0,0,.93-2.18c.09-.3.17-.46.23-.48a.92.92,0,0,1,.23,0h.09c.29,0,.43.07.43.2a4,4,0,0,1-.11.62,7.32,7.32,0,0,1-.46,1.23,3.74,3.74,0,0,1-.73,1.13,2.16,2.16,0,0,1-.72.48,2.51,2.51,0,0,1-.55.05,2.39,2.39,0,0,1-1.3-.34,1.87,1.87,0,0,1-.68-.71l-.13-.34s-.05,0-.1,0l-.09.09a4,4,0,0,1-2.73,1.28,3.13,3.13,0,0,1-2.2-.91A3.83,3.83,0,0,1,252.6,139.75Zm7.23-3.89a1.8,1.8,0,0,0-.11-.5,2.16,2.16,0,0,0-.52-.8,1.46,1.46,0,0,0-1.05-.45,2.16,2.16,0,0,0-1.52.7,4.69,4.69,0,0,0-1.14,1.85,17.87,17.87,0,0,0-.93,3.73v.25a1.65,1.65,0,0,1,0,.27,1.89,1.89,0,0,0,.41,1.41,1.45,1.45,0,0,0,1,.41,2.57,2.57,0,0,0,1.71-.75,3.93,3.93,0,0,0,1-1.16c0-.06.23-.87.61-2.44S259.82,136,259.83,135.86Z"/><path id="MJMAIN-2C" d="M265.68,142.52V142a1.42,1.42,0,0,1,.36-1,1.23,1.23,0,0,1,1-.41,1.51,1.51,0,0,1,1.14.57,3.16,3.16,0,0,1,.52,2,6.08,6.08,0,0,1-.2,1.54A7.43,7.43,0,0,1,268,146a5.13,5.13,0,0,1-.59.93c-.22.26-.4.46-.55.62s-.25.22-.29.2-.16-.07-.3-.2-.2-.24-.2-.3.08-.18.25-.36.35-.41.56-.69a4.35,4.35,0,0,0,.6-1.13,6.65,6.65,0,0,0,.36-1.66v-.28l0,0-.12,0-.13.07a.41.41,0,0,1-.21.05,1.23,1.23,0,0,0-.27,0,1.35,1.35,0,0,1-1-.39Z"/><path id="MJMATHI-62" d="M275.68,128.61a1.89,1.89,0,0,1,.09-.53c.07-.19.16-.29.28-.29l1.63-.12c1.08-.07,1.63-.12,1.66-.13.19,0,.28.07.28.2s-.26,1.22-.78,3.25c-.12.52-.25,1-.38,1.6s-.25.95-.34,1.22l-.09.44s0,0,.13-.07a3.58,3.58,0,0,1,2.3-.91,2.81,2.81,0,0,1,2.27,1,4.12,4.12,0,0,1,.89,2.64,6.75,6.75,0,0,1-1.8,4.57,5.12,5.12,0,0,1-3.86,2,3,3,0,0,1-2.07-.87,3.72,3.72,0,0,1-1-2.79v-.21a6.33,6.33,0,0,1,.19-1.32q.18-.84,1.11-4.47c.76-3,1.14-4.58,1.14-4.76s-.29-.29-.87-.32h-.59a.32.32,0,0,1-.16-.06A.16.16,0,0,1,275.68,128.61Zm6,7.32v-.14q0-1.68-1.38-1.68a2,2,0,0,0-.8.18,3,3,0,0,0-.75.48c-.23.2-.42.38-.59.54a3.06,3.06,0,0,0-.41.51l-.14.18-.47,1.95a12.72,12.72,0,0,0-.5,2.78,2.23,2.23,0,0,0,.54,1.63,1.21,1.21,0,0,0,.91.37,2.23,2.23,0,0,0,1.52-.73,3.78,3.78,0,0,0,.91-1.27,14.68,14.68,0,0,0,.75-2.39A10.78,10.78,0,0,0,281.66,135.93Z"/><path id="MJMAIN-29" d="M285.14,126.29l.09,0h.5l.64.55a11.3,11.3,0,0,1,3.12,4.82,18.67,18.67,0,0,1,1,6,19.07,19.07,0,0,1-.22,3,20.53,20.53,0,0,1-.53,2.44,9.7,9.7,0,0,1-.84,2c-.36.66-.65,1.17-.86,1.52a7,7,0,0,1-.93,1.16l-.73.75a5.78,5.78,0,0,1-.53.43l-.09.09h-.52a.14.14,0,0,1-.11-.06.52.52,0,0,1-.07-.21s.1-.11.25-.3q3.53-3.66,3.52-10.8t-3.52-10.8l-.25-.29A.27.27,0,0,1,285.14,126.29Z"/><path id="MJMATHI-62-2" data-name="MJMATHI-62" d="M21.49,143.47a2.62,2.62,0,0,1,.13-.72c.08-.27.21-.4.37-.4l2.25-.16c1.48-.1,2.24-.17,2.28-.19.25,0,.37.1.37.28s-.35,1.68-1.06,4.47c-.16.7-.34,1.43-.53,2.18s-.34,1.31-.47,1.69l-.12.59c0,.06.06,0,.19-.09a4.9,4.9,0,0,1,3.15-1.25,3.86,3.86,0,0,1,3.12,1.43,5.7,5.7,0,0,1,1.22,3.62,9.29,9.29,0,0,1-2.47,6.27,7,7,0,0,1-5.3,2.81,4.06,4.06,0,0,1-2.84-1.18A5.12,5.12,0,0,1,20.46,159v-.28a9.64,9.64,0,0,1,.25-1.81q.25-1.15,1.53-6.15,1.56-6.15,1.56-6.52c0-.25-.39-.4-1.18-.44h-.81a.37.37,0,0,1-.22-.09A.2.2,0,0,1,21.49,143.47Zm8.21,10.05v-.19c0-1.54-.63-2.31-1.9-2.31a2.74,2.74,0,0,0-1.09.25,4.11,4.11,0,0,0-1,.66c-.32.27-.59.52-.82.75a4.29,4.29,0,0,0-.56.68l-.18.25-.66,2.69a17.73,17.73,0,0,0-.69,3.8,3.06,3.06,0,0,0,.75,2.25,1.72,1.72,0,0,0,1.25.5,3.09,3.09,0,0,0,2.09-1,5.32,5.32,0,0,0,1.25-1.75,20.46,20.46,0,0,0,1-3.27A15.6,15.6,0,0,0,29.7,153.52Z"/><path id="MJMATHI-61-2" data-name="MJMATHI-61" d="M288.8,369.72a9.35,9.35,0,0,1,2.4-6.07,7.07,7.07,0,0,1,5.41-2.91,3.62,3.62,0,0,1,2.85,1.55,1.58,1.58,0,0,1,1.45-1,1.19,1.19,0,0,1,.73.25.78.78,0,0,1,.31.64q0,.4-1.17,5.06t-1.2,5.25a1.75,1.75,0,0,0,.22,1,.93.93,0,0,0,.67.28,1.32,1.32,0,0,0,.63-.28,7.14,7.14,0,0,0,1.3-3c.12-.42.23-.64.31-.66a1,1,0,0,1,.32,0h.13c.4,0,.6.09.6.28a5.9,5.9,0,0,1-.16.86,10.73,10.73,0,0,1-.63,1.7,5.46,5.46,0,0,1-1,1.59,3.16,3.16,0,0,1-1,.66,3.55,3.55,0,0,1-.76.06,3.22,3.22,0,0,1-1.8-.47,2.49,2.49,0,0,1-.95-1l-.19-.48s-.06,0-.12,0l-.13.12a5.54,5.54,0,0,1-3.8,1.77,4.3,4.3,0,0,1-3.06-1.26A5.31,5.31,0,0,1,288.8,369.72Zm10.05-5.41a2.79,2.79,0,0,0-.88-1.8,2,2,0,0,0-1.46-.63,3,3,0,0,0-2.11,1,6.57,6.57,0,0,0-1.59,2.56,25.27,25.27,0,0,0-1.29,5.19V371a1.7,1.7,0,0,1,0,.37,2.68,2.68,0,0,0,.57,2,2,2,0,0,0,1.36.56,3.54,3.54,0,0,0,2.37-1,5.27,5.27,0,0,0,1.39-1.61c0-.09.33-1.21.85-3.39S298.83,364.48,298.85,364.31Z"/><path class="cls-2" d="M31.5,273.5c226-1,73-121,343-121"/><circle cx="296.5" cy="157.5" r="4"/><line class="cls-1" x1="296.5" y1="350.5" x2="296.5" y2="330.5"/><line class="cls-1" x1="39.5" y1="157.5" x2="59.5" y2="157.5"/><path id="MJMATHI-41" d="M376.18,362.8q0,.51,1,.6c.25,0,.38.08.38.23a2.63,2.63,0,0,1,0,.28,1.21,1.21,0,0,1-.13.39.37.37,0,0,1-.28.08h-.26l-.72,0-1.37,0c-1,0-1.66,0-1.95,0h-.17c-.1-.1-.15-.18-.15-.23a1,1,0,0,1,.28-.75h.3a2.61,2.61,0,0,0,2.18-1.07c.09-.09,1.38-2.26,3.87-6.53l3.81-6.48a.55.55,0,0,1,.51-.26H384a1.42,1.42,0,0,1,.13.22l.6,6.91c.39,4.6.61,6.93.64,7s.53.24,1.39.24c.35,0,.53.07.53.21a2.32,2.32,0,0,1-.06.3,1.49,1.49,0,0,1-.11.39s-.13.07-.3.08h-.3l-.83,0-1.56,0c-1.34,0-2.22,0-2.63,0h-.26a.33.33,0,0,1-.13-.19s0-.17,0-.39a1.84,1.84,0,0,1,.13-.34l.09-.06h.42c.77,0,1.23-.17,1.37-.37l-.25-3.21h-5.09l-.73,1.25A6.8,6.8,0,0,0,376.18,362.8Zm6.59-4c0-.16-.09-1.27-.26-3.34s-.27-3.11-.3-3.12l-.57.92c-.23.38-.68,1.15-1.35,2.29l-1.93,3.25,2.21,0C382,358.84,382.77,358.83,382.77,358.82Z"/><path id="MJMATHI-42" d="M29.61,1c-.39,0-.63,0-.7,0S28.8.88,28.8.74Q28.8.16,29,0s1,0,2.82,0c3.75,0,5.73,0,5.93,0a4.65,4.65,0,0,1,2.28,1A2.55,2.55,0,0,1,41,3a3.27,3.27,0,0,1-1.26,2.49A6.65,6.65,0,0,1,36.86,7l-.22.06a4.26,4.26,0,0,1,2.28,1,2.69,2.69,0,0,1,.91,2,4.24,4.24,0,0,1-1.56,3.06,6.25,6.25,0,0,1-3.85,1.67c-.1,0-1.62,0-4.57,0s-4.37,0-4.41,0a.2.2,0,0,1-.09-.18,1,1,0,0,1,0-.3c.07-.27.14-.43.21-.45a1.21,1.21,0,0,1,.33,0h.13c.39,0,.82,0,1.3-.06a.56.56,0,0,0,.41-.26q.07-.09,1.57-6t1.49-6.28C30.84,1.09,30.43,1,29.61,1Zm9.07,2a2.38,2.38,0,0,0-.33-1.22,1.59,1.59,0,0,0-1.06-.74c-.1,0-.77-.05-2-.06h-.91l-.76,0h-.28c-.22,0-.36.09-.41.22s-.26.92-.7,2.6a.3.3,0,0,1,0,.13l-.67,2.74H33.3c1.17,0,1.84,0,2,0A4.12,4.12,0,0,0,37.64,5.4,3.41,3.41,0,0,0,38.68,3ZM37.51,9.85A2.49,2.49,0,0,0,37,8.27a2,2,0,0,0-1.31-.74c-.08,0-.68,0-1.8,0-1.7,0-2.56,0-2.58,0s-.12.56-.37,1.58-.5,2.05-.76,3.06l-.39,1.52c0,.06.09.09.26.09l1.76,0c1.29,0,2,0,2.08,0a4.15,4.15,0,0,0,2.48-1.26A3.62,3.62,0,0,0,37.51,9.85Z"/><path id="MJMAIN-393" class="cls-3" d="M367.57,128.31a1.12,1.12,0,0,0-.29-.23,1.6,1.6,0,0,0-.41-.08l-1.12-.08h-.86v-1.19h13.74v.1c0,.11.16,1.11.37,3s.33,2.91.36,3v.1h-1v-.1s0-.31-.1-.88a9.24,9.24,0,0,0-.39-1.74,3.2,3.2,0,0,0-.81-1.38c-.65-.62-1.89-.94-3.71-.94h-.39c-1.21,0-1.95,0-2.21,0s-.4.12-.41.31,0,2.5,0,7.33l0,7.22a.9.9,0,0,0,.31.23,2.93,2.93,0,0,0,.65.11c.34,0,.89,0,1.63,0h.7v1.2h-.31c-.41-.06-1.85-.08-4.31-.08-2.27,0-3.53,0-3.79.08h-.29v-1.2h.86a9.47,9.47,0,0,0,1.32-.08,1.07,1.07,0,0,0,.5-.31Z"/></g></g></svg>