<svg xmlns="http://www.w3.org/2000/svg" viewBox="0 0 375 375"><defs><style>.cls-1,.cls-2{fill:none;stroke:#000;stroke-miterlimit:10;}.cls-1{stroke-width:2px;}</style></defs><title>img06</title><g id="Ebene_2" data-name="Ebene 2"><g id="Ebene_1-2" data-name="Ebene 1"><line class="cls-1" x1="49.5" y1="12.07" x2="49.5" y2="375"/><path d="M49.5,0C47.39,5.68,43.8,12.73,40,17.09l9.51-3.44L59,17.09C55.2,12.73,51.61,5.68,49.5,0Z"/><line class="cls-1" y1="325.5" x2="362.93" y2="325.5"/><path d="M375,325.5c-5.68,2.11-12.73,5.7-17.09,9.51l3.44-9.51L357.91,316C362.27,319.8,369.32,323.39,375,325.5Z"/><path id="MJMATHI-41" d="M356.18,352.29q0,.52,1,.6c.25,0,.38.08.38.24s0,.11,0,.28a1.12,1.12,0,0,1-.13.38c0,.06-.14.09-.28.09h-.26l-.72,0c-.34,0-.8,0-1.37,0-1,0-1.66,0-1.95.05h-.17a.41.41,0,0,1-.15-.24,1,1,0,0,1,.28-.75h.3a2.59,2.59,0,0,0,2.18-1.07c.09-.08,1.38-2.26,3.87-6.52l3.81-6.48a.55.55,0,0,1,.51-.26H364a1.42,1.42,0,0,1,.13.22l.6,6.9c.39,4.61.61,6.94.64,7s.53.23,1.39.23c.35,0,.53.07.53.22a2.32,2.32,0,0,1-.06.3,1.26,1.26,0,0,1-.11.38s-.13.07-.3.09h-.3l-.83,0q-.6,0-1.56,0c-1.34,0-2.22,0-2.63.05h-.26c-.09-.09-.13-.15-.13-.2a3.58,3.58,0,0,1,0-.38,1.57,1.57,0,0,1,.13-.34l.09-.07h.42c.77,0,1.23-.16,1.37-.36l-.25-3.21h-5.09l-.73,1.24A7,7,0,0,0,356.18,352.29Zm6.59-4c0-.16-.09-1.27-.26-3.34s-.27-3.11-.3-3.12l-.57.92-1.35,2.28-1.93,3.26,2.21,0C362,348.34,362.77,348.33,362.77,348.32Z"/><path id="MJMATHI-42" d="M23.61,8.49a5,5,0,0,1-.7,0c-.07,0-.11-.09-.11-.24,0-.39.08-.62.24-.71s1,0,2.82,0c3.75,0,5.73,0,5.93,0a4.56,4.56,0,0,1,2.28,1,2.53,2.53,0,0,1,.93,2A3.27,3.27,0,0,1,33.74,13a6.65,6.65,0,0,1-2.88,1.5l-.22.06a4.19,4.19,0,0,1,2.28,1,2.67,2.67,0,0,1,.91,2,4.27,4.27,0,0,1-1.56,3.06,6.25,6.25,0,0,1-3.85,1.67c-.1,0-1.62,0-4.57,0s-4.37,0-4.41,0a.23.23,0,0,1-.09-.18,1,1,0,0,1,0-.3c.07-.28.14-.43.21-.46l.33,0h.13c.39,0,.82,0,1.3-.06a.6.6,0,0,0,.41-.27s.57-2.06,1.57-6,1.49-6.05,1.49-6.27S24.43,8.52,23.61,8.49Zm9.07,2a2.34,2.34,0,0,0-.33-1.21,1.56,1.56,0,0,0-1.06-.74c-.1,0-.77-.05-2-.07h-.91a7.56,7.56,0,0,0-.76,0h-.28c-.22,0-.36.08-.41.21s-.26.93-.7,2.61a.32.32,0,0,1,0,.13l-.67,2.73H27.3c1.17,0,1.84,0,2,0a4.24,4.24,0,0,0,2.33-1.26A3.41,3.41,0,0,0,32.68,10.51Zm-1.17,6.84a2.5,2.5,0,0,0-.5-1.59A2,2,0,0,0,29.7,15c-.08,0-.68,0-1.8,0-1.7,0-2.56,0-2.58,0s-.12.55-.37,1.58-.5,2.05-.76,3.06l-.39,1.52c0,.06.09.09.26.09l1.76,0c1.29,0,2,0,2.08,0A4.15,4.15,0,0,0,30.38,20,3.63,3.63,0,0,0,31.51,17.35Z"/><path class="cls-2" d="M312.76,93.26c1.31-.92-516,52.36,0,109"/></g></g></svg>