<svg xmlns="http://www.w3.org/2000/svg" viewBox="0 0 383 389.44"><defs><style>.cls-1,.cls-2,.cls-3{fill:none;stroke:#000;stroke-miterlimit:10;}.cls-1{stroke-width:2px;}.cls-3{stroke-dasharray:12.34 12.34;}</style></defs><title>img09</title><g id="Ebene_2" data-name="Ebene 2"><g id="Ebene_1-2" data-name="Ebene 1"><line class="cls-1" x1="49.5" y1="26.51" x2="49.5" y2="389.44"/><path d="M49.5,14.44C47.39,20.12,43.8,27.17,40,31.53l9.51-3.44L59,31.53C55.2,27.17,51.61,20.12,49.5,14.44Z"/><line class="cls-1" y1="339.94" x2="362.93" y2="339.94"/><path d="M375,339.94c-5.68,2.11-12.73,5.7-17.09,9.51l3.44-9.51-3.44-9.51C362.27,334.24,369.32,337.83,375,339.94Z"/><path id="MJMATHI-41" d="M28.18,13.73c0,.35.33.54,1,.6.25,0,.38.08.38.24,0,0,0,.1,0,.28a1.12,1.12,0,0,1-.13.38c0,.06-.14.09-.28.09h-.26l-.72,0-1.37,0c-1,0-1.66,0-1.95.05h-.17a.41.41,0,0,1-.15-.24,1,1,0,0,1,.28-.75h.3a2.59,2.59,0,0,0,2.18-1.07c.09-.08,1.38-2.26,3.87-6.52S34.88.31,34.92.26A.55.55,0,0,1,35.43,0H36l.13.21.6,6.91c.39,4.61.61,6.93.64,7s.53.23,1.39.23c.35,0,.53.07.53.22s0,.12-.06.3a1.26,1.26,0,0,1-.11.38s-.13.07-.3.09h-.3l-.83,0-1.56,0c-1.34,0-2.22,0-2.63.05h-.26c-.09-.09-.13-.15-.13-.2a3.58,3.58,0,0,1,0-.38,1.57,1.57,0,0,1,.13-.34l.09-.07h.42c.77,0,1.23-.16,1.37-.36l-.25-3.21H29.79L29.06,12A6.8,6.8,0,0,0,28.18,13.73Zm6.59-4c0-.15-.09-1.26-.26-3.33s-.27-3.11-.3-3.13l-.57.92L32.29,6.5,30.36,9.75l2.21,0C34,9.78,34.77,9.77,34.77,9.75Z"/><path id="MJMATHI-42" d="M371.61,353.93a5,5,0,0,1-.7,0c-.07,0-.11-.09-.11-.24,0-.39.08-.63.24-.71s1,0,2.82,0c3.75,0,5.73,0,5.93,0a4.56,4.56,0,0,1,2.28,1,2.53,2.53,0,0,1,.93,2,3.27,3.27,0,0,1-1.26,2.5,6.63,6.63,0,0,1-2.88,1.49l-.22.07a4.19,4.19,0,0,1,2.28,1,2.67,2.67,0,0,1,.91,2,4.24,4.24,0,0,1-1.56,3.06,6.21,6.21,0,0,1-3.85,1.68c-.1,0-1.62,0-4.57,0s-4.37,0-4.41-.05a.2.2,0,0,1-.09-.17,1,1,0,0,1,0-.3c.07-.28.14-.43.21-.46l.33,0h.13a12.5,12.5,0,0,0,1.3-.07.56.56,0,0,0,.41-.26c.05-.05.57-2.07,1.57-6s1.49-6,1.49-6.27S372.43,354,371.61,353.93Zm9.07,2a2.34,2.34,0,0,0-.33-1.21,1.53,1.53,0,0,0-1.06-.74c-.1,0-.77-.05-2-.07h-.91a7.56,7.56,0,0,0-.76,0h-.28c-.22,0-.36.08-.41.21s-.26.93-.7,2.61a.32.32,0,0,1,0,.13l-.67,2.73h1.76c1.17,0,1.84,0,2,0a4.24,4.24,0,0,0,2.33-1.26A3.43,3.43,0,0,0,380.68,356Zm-1.17,6.84a2.5,2.5,0,0,0-.5-1.59,1.94,1.94,0,0,0-1.31-.73q-.12,0-1.8,0-2.55,0-2.58,0s-.12.55-.37,1.58-.5,2.05-.76,3.06l-.39,1.52c0,.06.09.09.26.09l1.76,0c1.29,0,2,0,2.08,0a4.15,4.15,0,0,0,2.48-1.26A3.65,3.65,0,0,0,379.51,362.79Z"/><path class="cls-2" d="M73.19,364.22c0-110,109.82-237,205-237"/><line class="cls-2" x1="49.76" y1="339.7" x2="54.01" y2="335.46"/><line class="cls-3" x1="62.73" y1="326.73" x2="302.66" y2="86.81"/><line class="cls-2" x1="307.02" y1="82.44" x2="311.26" y2="78.2"/><path id="MJMAIN-393" d="M141.57,151.57a.69.69,0,0,0-.16-.13.47.47,0,0,0-.22,0l-.62-.05h-.47v-.65h7.55v.05c0,.06.09.61.2,1.66s.18,1.6.2,1.65v.06h-.57v-.06s0-.17-.06-.48a5,5,0,0,0-.21-1,1.82,1.82,0,0,0-.44-.75,3,3,0,0,0-2-.52h-.22c-.66,0-1.07,0-1.21,0s-.22.06-.23.17,0,1.37,0,4v4a.54.54,0,0,0,.17.13,1.78,1.78,0,0,0,.36.06q.28,0,.9,0h.38v.65h-.17c-.23,0-1,0-2.37,0s-1.94,0-2.08,0h-.16v-.65h.47a5.16,5.16,0,0,0,.73-.05.51.51,0,0,0,.27-.17Z"/><path id="MJMATHI-66" d="M149.86,166.26l.06,0a.16.16,0,0,0,.11,0h.12a.3.3,0,0,0,.24-.13.83.83,0,0,0,.16-.29,15.12,15.12,0,0,0,.35-1.55c.16-.84.31-1.65.46-2.42s.22-1.15.22-1.16v0h-.47a2.22,2.22,0,0,1-.51,0,.13.13,0,0,1,0-.1l.07-.28a.07.07,0,0,1,.08-.05h1s0-.18.09-.51.1-.51.12-.58c.25-1.11.74-1.67,1.48-1.67a1.07,1.07,0,0,1,.61.22.69.69,0,0,1,.25.54.61.61,0,0,1-.22.52.77.77,0,0,1-.42.18.38.38,0,0,1-.44-.43.47.47,0,0,1,.11-.33.59.59,0,0,1,.24-.21l.09-.05a.89.89,0,0,0-.3-.06.36.36,0,0,0-.24.1.54.54,0,0,0-.15.28c0,.19-.1.46-.16.79s-.11.61-.16.83-.07.35-.07.37a3.22,3.22,0,0,0,.55,0h.53a.13.13,0,0,1,.11.06.4.4,0,0,1,0,.17.75.75,0,0,1,0,.16s0,0-.09,0h-1.11l-.23,1.23c-.33,1.67-.55,2.71-.68,3.13a2.92,2.92,0,0,1-.71,1.27,1.1,1.1,0,0,1-.73.33,1,1,0,0,1-.59-.2.63.63,0,0,1-.26-.54.68.68,0,0,1,.21-.55.69.69,0,0,1,.43-.17.38.38,0,0,1,.44.43.55.55,0,0,1-.11.33,1.13,1.13,0,0,1-.24.21Z"/><path id="MJMAIN-2212" d="M155,158.57v-.09a.18.18,0,0,1,.1-.15h4.15a.18.18,0,0,1,.11.15c0,.05,0,.1-.11.14H155.1c-.06,0-.1-.08-.1-.14Z"/><path id="MJMAIN-31" d="M161.48,156.13l-.1,0-.28.07a2.55,2.55,0,0,1-.42,0h-.13V156h.13a2.37,2.37,0,0,0,.62-.1,1.55,1.55,0,0,0,.4-.18,1.15,1.15,0,0,0,.2-.15s0,0,.09,0a.19.19,0,0,1,.12,0v4.27a.23.23,0,0,0,.08.07l.18,0H163v.33h-.08c-.1,0-.47,0-1.13,0s-1,0-1.12,0h-.09v-.33h.64l.11,0h.06l0,0,0,0Z"/></g></g></svg>