<svg xmlns="http://www.w3.org/2000/svg" viewBox="0 0 387.26 389.5"><defs><style>.cls-1,.cls-2,.cls-3{fill:none;stroke:#000;stroke-miterlimit:10;}.cls-1{stroke-width:2px;}.cls-3{stroke-dasharray:12.34 12.34;}</style></defs><title>img08</title><g id="Ebene_2" data-name="Ebene 2"><g id="Ebene_1-2" data-name="Ebene 1"><line class="cls-1" x1="49.5" y1="26.57" x2="49.5" y2="389.5"/><path d="M49.5,14.5C47.39,20.18,43.8,27.23,40,31.6l9.51-3.44L59,31.6C55.2,27.23,51.61,20.18,49.5,14.5Z"/><line class="cls-1" y1="340" x2="362.93" y2="340"/><path d="M375,340c-5.68,2.11-12.73,5.71-17.09,9.52l3.44-9.52-3.44-9.51C362.27,334.3,369.32,337.9,375,340Z"/><path id="MJMATHI-41" d="M376.18,362.8q0,.51,1,.6c.25,0,.38.08.38.23a2.63,2.63,0,0,1,0,.28,1.21,1.21,0,0,1-.13.39.37.37,0,0,1-.28.08h-.26l-.72,0-1.37,0c-1,0-1.66,0-1.95,0h-.17c-.1-.1-.15-.18-.15-.23a1,1,0,0,1,.28-.75h.3a2.61,2.61,0,0,0,2.18-1.07c.09-.09,1.38-2.26,3.87-6.53l3.81-6.48a.55.55,0,0,1,.51-.26H384a1.42,1.42,0,0,1,.13.22l.6,6.91c.39,4.6.61,6.93.64,7s.53.24,1.39.24c.35,0,.53.07.53.21a2.32,2.32,0,0,1-.06.3,1.49,1.49,0,0,1-.11.39s-.13.07-.3.08h-.3l-.83,0-1.56,0c-1.34,0-2.22,0-2.63,0h-.26a.33.33,0,0,1-.13-.19s0-.17,0-.39a1.84,1.84,0,0,1,.13-.34l.09-.06h.42c.77,0,1.23-.17,1.37-.37l-.25-3.21h-5.09l-.73,1.25A6.8,6.8,0,0,0,376.18,362.8Zm6.59-4c0-.16-.09-1.27-.26-3.34s-.27-3.11-.3-3.12l-.57.92c-.23.38-.68,1.15-1.35,2.29l-1.93,3.25,2.21,0C382,358.84,382.77,358.83,382.77,358.82Z"/><path id="MJMATHI-42" d="M31.61,1c-.39,0-.63,0-.7,0S30.8.88,30.8.74Q30.8.16,31,0s1,0,2.82,0c3.75,0,5.73,0,5.93,0a4.65,4.65,0,0,1,2.28,1A2.55,2.55,0,0,1,43,3a3.27,3.27,0,0,1-1.26,2.49A6.65,6.65,0,0,1,38.86,7l-.22.06a4.26,4.26,0,0,1,2.28,1,2.69,2.69,0,0,1,.91,2,4.24,4.24,0,0,1-1.56,3.06,6.25,6.25,0,0,1-3.85,1.67c-.1,0-1.62,0-4.57,0s-4.37,0-4.41,0a.2.2,0,0,1-.09-.18,1,1,0,0,1,0-.3c.07-.27.14-.43.21-.45a1.21,1.21,0,0,1,.33,0h.13c.39,0,.82,0,1.3-.06a.56.56,0,0,0,.41-.26q.07-.09,1.57-6t1.49-6.28C32.84,1.09,32.43,1,31.61,1Zm9.07,2a2.38,2.38,0,0,0-.33-1.22,1.59,1.59,0,0,0-1.06-.74c-.1,0-.77-.05-2-.06h-.91l-.76,0h-.28c-.22,0-.36.09-.41.22s-.26.92-.7,2.6a.3.3,0,0,1,0,.13l-.67,2.74H35.3c1.17,0,1.84,0,2,0A4.12,4.12,0,0,0,39.64,5.4,3.41,3.41,0,0,0,40.68,3ZM39.51,9.85A2.49,2.49,0,0,0,39,8.27a2,2,0,0,0-1.31-.74c-.08,0-.68,0-1.8,0-1.7,0-2.56,0-2.58,0s-.12.56-.37,1.58-.5,2.05-.76,3.06l-.39,1.52c0,.06.09.09.26.09l1.76,0c1.29,0,2,0,2.08,0a4.15,4.15,0,0,0,2.48-1.26A3.62,3.62,0,0,0,39.51,9.85Z"/><path class="cls-2" d="M24.76,314.77c110,0,237-109.82,237-205"/><line class="cls-2" x1="49.76" y1="339.77" x2="54.01" y2="335.52"/><line class="cls-3" x1="62.73" y1="326.8" x2="302.66" y2="86.87"/><line class="cls-2" x1="307.02" y1="82.51" x2="311.26" y2="78.27"/><path id="MJMAIN-393" d="M225.23,228.14a.54.54,0,0,0-.18-.15.82.82,0,0,0-.26-.05l-.7-.05h-.54v-.75h8.64v.07c0,.06.1.69.23,1.89s.21,1.83.23,1.9v.06H232V231s0-.2-.07-.56a5.52,5.52,0,0,0-.25-1.09,1.94,1.94,0,0,0-.5-.87,3.47,3.47,0,0,0-2.34-.59h-.24c-.76,0-1.23,0-1.39,0s-.25.08-.26.2,0,1.56,0,4.6l0,4.54a.57.57,0,0,0,.2.15,2.11,2.11,0,0,0,.4.06c.22,0,.56,0,1,0H229v.76h-.19c-.26,0-1.17-.05-2.71-.05s-2.22,0-2.39.05h-.18v-.76h.54a7.37,7.37,0,0,0,.83,0,.68.68,0,0,0,.31-.2Z"/><path id="MJMATHI-66" d="M234.71,242.65a.11.11,0,0,1,.07,0,.42.42,0,0,0,.13,0h.14a.34.34,0,0,0,.27-.15.92.92,0,0,0,.19-.33,15,15,0,0,0,.39-1.77c.19-1,.36-1.89.53-2.77s.26-1.32.26-1.33v0h-.55a4,4,0,0,1-.57,0,.17.17,0,0,1,0-.12l.08-.32a.1.1,0,0,1,.09-.06h1.1s0-.21.1-.58.12-.59.14-.67c.29-1.27.85-1.9,1.69-1.9a1.14,1.14,0,0,1,.7.25.74.74,0,0,1,.28.61.7.7,0,0,1-.24.6.93.93,0,0,1-.49.2c-.34,0-.5-.16-.5-.49a.64.64,0,0,1,.12-.38.88.88,0,0,1,.28-.24l.1-.06a1.15,1.15,0,0,0-.34-.07.39.39,0,0,0-.27.12.58.58,0,0,0-.17.32c-.06.22-.12.52-.19.9l-.18,1a3.53,3.53,0,0,0-.08.42,4.27,4.27,0,0,0,.63,0h.6a.19.19,0,0,1,.13.07.55.55,0,0,1,0,.2l-.06.18a.1.1,0,0,1-.1.06h-1.27l-.27,1.41c-.37,1.91-.63,3.1-.77,3.58a3.41,3.41,0,0,1-.81,1.45,1.3,1.3,0,0,1-.84.37,1.08,1.08,0,0,1-.67-.22.71.71,0,0,1-.3-.62.74.74,0,0,1,.24-.62.72.72,0,0,1,.48-.2q.51,0,.51.48a.55.55,0,0,1-.13.38.91.91,0,0,1-.27.25Z"/></g></g></svg>