<svg xmlns="http://www.w3.org/2000/svg" viewBox="0 0 358.52 367.76"><defs><style>.cls-1,.cls-2,.cls-3{fill:none;stroke:#000;stroke-miterlimit:10;}.cls-1{stroke-width:2px;}.cls-3{stroke-dasharray:12.34 12.34;}</style></defs><title>img7</title><g id="Ebene_2" data-name="Ebene 2"><g id="Ebene_1-2" data-name="Ebene 1"><line class="cls-1" x1="25.02" y1="26.51" x2="25.02" y2="364.44"/><path d="M25,14.44c-2.11,5.68-5.7,12.73-9.51,17.09L25,28.09l9.51,3.44C30.72,27.17,27.12,20.12,25,14.44Z"/><line class="cls-1" x1="0.52" y1="339.94" x2="338.45" y2="339.94"/><path d="M350.52,339.94c-5.68,2.11-12.73,5.7-17.1,9.51l3.44-9.51-3.44-9.51C337.79,334.24,344.84,337.83,350.52,339.94Z"/><path id="MJMATHI-41" d="M3.7,13.73c0,.35.33.54,1,.6q.39,0,.39.24s0,.1,0,.28a1.41,1.41,0,0,1-.13.38c0,.06-.14.09-.28.09H4.36l-.72,0-1.37,0c-1,0-1.66,0-1.95.05H.15A.41.41,0,0,1,0,15.08a1,1,0,0,1,.28-.75h.3a2.59,2.59,0,0,0,2.18-1.07c.09-.08,1.38-2.26,3.87-6.52S10.4.31,10.44.26A.55.55,0,0,1,11,0h.54l.13.21.59,6.91c.4,4.61.62,6.93.65,7s.53.23,1.39.23c.35,0,.53.07.53.22s0,.12-.06.3a1.68,1.68,0,0,1-.11.38s-.13.07-.3.09H14l-.83,0-1.56,0c-1.35,0-2.22,0-2.64.05H8.73c-.09-.09-.13-.15-.13-.2a3.58,3.58,0,0,1,0-.38,1.57,1.57,0,0,1,.13-.34l.09-.07h.42c.77,0,1.23-.16,1.37-.36l-.25-3.21H5.3L4.58,12A6.8,6.8,0,0,0,3.7,13.73Zm6.59-4c0-.15-.09-1.26-.26-3.33s-.27-3.11-.3-3.13l-.57.92L7.81,6.5,5.88,9.75l2.21,0C9.55,9.78,10.29,9.77,10.29,9.75Z"/><path id="MJMATHI-42" d="M347.13,353.93a5,5,0,0,1-.7,0c-.07,0-.11-.09-.11-.24,0-.39.08-.63.24-.71s1,0,2.82,0c3.75,0,5.72,0,5.93,0a4.56,4.56,0,0,1,2.28,1,2.56,2.56,0,0,1,.93,2,3.27,3.27,0,0,1-1.26,2.5,6.61,6.61,0,0,1-2.89,1.49l-.21.07a4.19,4.19,0,0,1,2.28,1,2.67,2.67,0,0,1,.91,2,4.21,4.21,0,0,1-1.57,3.06,6.16,6.16,0,0,1-3.84,1.68c-.1,0-1.62,0-4.58,0s-4.36,0-4.4-.05a.2.2,0,0,1-.09-.17,1,1,0,0,1,.05-.3c.07-.28.14-.43.21-.46l.33,0h.13a12.5,12.5,0,0,0,1.3-.07.56.56,0,0,0,.41-.26c.05-.05.57-2.07,1.57-6s1.49-6,1.49-6.27S348,354,347.13,353.93Zm9.07,2a2.34,2.34,0,0,0-.33-1.21,1.55,1.55,0,0,0-1.06-.74c-.1,0-.77-.05-2-.07h-.91a7.56,7.56,0,0,0-.76,0h-.28c-.22,0-.36.08-.41.21s-.26.93-.7,2.61a.69.69,0,0,1,0,.13l-.67,2.73h1.75c1.18,0,1.85,0,2,0a4.24,4.24,0,0,0,2.33-1.26A3.43,3.43,0,0,0,356.2,356ZM355,362.79a2.5,2.5,0,0,0-.5-1.59,1.94,1.94,0,0,0-1.31-.73q-.12,0-1.8,0c-1.7,0-2.57,0-2.58,0s-.12.55-.37,1.58-.5,2.05-.76,3.06l-.39,1.52c0,.06.09.09.26.09l1.76,0c1.29,0,2,0,2.08,0a4.18,4.18,0,0,0,2.48-1.26A3.65,3.65,0,0,0,355,362.79Z"/><path class="cls-2" d="M48.71,364.22c0-110,109.82-237,205-237"/><line class="cls-2" x1="25.28" y1="339.7" x2="29.52" y2="335.46"/><line class="cls-3" x1="38.25" y1="326.73" x2="278.18" y2="86.81"/><line class="cls-2" x1="282.54" y1="82.44" x2="286.78" y2="78.2"/><path id="MJMAIN-393" d="M117.09,151.57a.69.69,0,0,0-.16-.13.52.52,0,0,0-.23,0l-.61-.05h-.47v-.65h7.55v.05c0,.06.09.61.2,1.66s.18,1.6.2,1.65v.06H123v-.06s0-.17-.06-.48a5.93,5.93,0,0,0-.21-1,1.82,1.82,0,0,0-.44-.75,3,3,0,0,0-2.05-.52H120c-.67,0-1.07,0-1.21,0s-.22.06-.23.17,0,1.37,0,4l0,4a.54.54,0,0,0,.17.13,1.78,1.78,0,0,0,.36.06q.28,0,.9,0h.38v.65h-.17c-.23,0-1,0-2.37,0s-1.94,0-2.08,0h-.16v-.65h.47a5.16,5.16,0,0,0,.73-.05.59.59,0,0,0,.27-.17Z"/><path id="MJMATHI-66" d="M125.37,166.26l.07,0a.16.16,0,0,0,.11,0h.12a.31.31,0,0,0,.24-.13.83.83,0,0,0,.16-.29,13.57,13.57,0,0,0,.34-1.55c.17-.84.32-1.65.47-2.42s.22-1.15.22-1.16v0h-.47a2.22,2.22,0,0,1-.51,0,.11.11,0,0,1,0-.1l.07-.28a.07.07,0,0,1,.08-.05h1s0-.18.09-.51.1-.51.12-.58c.25-1.11.74-1.67,1.48-1.67a1.07,1.07,0,0,1,.61.22.68.68,0,0,1,.24.54.6.6,0,0,1-.21.52.77.77,0,0,1-.42.18.39.39,0,0,1-.45-.43.48.48,0,0,1,.12-.33A.59.59,0,0,1,129,158l.09-.05a.89.89,0,0,0-.3-.06.36.36,0,0,0-.24.1.54.54,0,0,0-.15.28c0,.19-.1.46-.16.79s-.11.61-.16.83-.07.35-.07.37a3.22,3.22,0,0,0,.55,0h.53a.13.13,0,0,1,.11.06.4.4,0,0,1,0,.17.75.75,0,0,1-.05.16s0,0-.09,0h-1.11l-.23,1.23c-.33,1.67-.55,2.71-.68,3.13a2.92,2.92,0,0,1-.71,1.27,1.12,1.12,0,0,1-.73.33,1,1,0,0,1-.59-.2.63.63,0,0,1-.26-.54.68.68,0,0,1,.21-.55.69.69,0,0,1,.42-.17c.3,0,.45.14.45.43a.55.55,0,0,1-.11.33,1.13,1.13,0,0,1-.24.21Z"/><path id="MJMAIN-2212" d="M130.52,158.57v-.09a.16.16,0,0,1,.1-.15h4.15a.18.18,0,0,1,.11.15c0,.05,0,.1-.11.14h-4.15c-.07,0-.1-.08-.1-.14Z"/><path id="MJMAIN-31" d="M137,156.13l-.09,0-.28.07a2.68,2.68,0,0,1-.42,0h-.13V156h.13a2.37,2.37,0,0,0,.62-.1,1.55,1.55,0,0,0,.4-.18,1.15,1.15,0,0,0,.2-.15s0,0,.09,0a.19.19,0,0,1,.12,0v4.27a.23.23,0,0,0,.08.07l.17,0h.63v.33h-.08c-.1,0-.47,0-1.13,0s-1,0-1.12,0h-.09v-.33h.64l.11,0h.06a.12.12,0,0,0,0,0l0,0Z"/></g></g></svg>