<svg xmlns="http://www.w3.org/2000/svg" viewBox="0 0 362.5 364.5"><defs><style>.cls-1,.cls-2,.cls-3{fill:none;stroke:#000;stroke-miterlimit:10;}.cls-1{stroke-width:2px;}.cls-3{stroke-dasharray:12.34 12.34;}</style></defs><title>img6</title><g id="Ebene_2" data-name="Ebene 2"><g id="Ebene_1-2" data-name="Ebene 1"><line class="cls-1" x1="24.74" y1="26.57" x2="24.74" y2="364.5"/><path d="M24.74,14.5C22.63,20.18,19,27.23,15.23,31.6l9.51-3.44,9.51,3.44C30.44,27.23,26.84,20.18,24.74,14.5Z"/><line class="cls-1" x1="0.24" y1="340" x2="338.17" y2="340"/><path d="M350.24,340c-5.68,2.11-12.73,5.71-17.1,9.52l3.44-9.52-3.44-9.51C337.51,334.3,344.56,337.9,350.24,340Z"/><path id="MJMATHI-41" d="M351.42,362.8c0,.34.33.54,1,.6.26,0,.39.08.39.23s0,.11-.05.28a1.28,1.28,0,0,1-.12.39.39.39,0,0,1-.28.08h-.26l-.73,0-1.36,0c-1,0-1.67,0-1.95,0h-.17c-.1-.1-.15-.18-.15-.23a1,1,0,0,1,.28-.75h.3a2.63,2.63,0,0,0,2.18-1.07c.08-.09,1.37-2.26,3.87-6.53s3.76-6.42,3.81-6.48a.55.55,0,0,1,.51-.26h.53a.85.85,0,0,1,.13.22l.6,6.91c.4,4.6.62,6.93.64,7s.54.24,1.39.24q.54,0,.54.21a2.32,2.32,0,0,1-.06.3,2.07,2.07,0,0,1-.11.39s-.13.07-.3.08h-.3l-.84,0-1.56,0c-1.34,0-2.21,0-2.63,0h-.25a.33.33,0,0,1-.13-.19s0-.17,0-.39a1.84,1.84,0,0,1,.13-.34l.08-.06H357c.77,0,1.23-.17,1.37-.37l-.26-3.21H353l-.72,1.25A6.8,6.8,0,0,0,351.42,362.8Zm6.59-4c0-.16-.09-1.27-.26-3.34s-.27-3.11-.3-3.12l-.58.92-1.34,2.29-1.93,3.25,2.2,0C357.27,358.84,358,358.83,358,358.82Z"/><path id="MJMATHI-42" d="M6.84,1c-.39,0-.62,0-.69,0S6,.88,6,.74Q6,.16,6.28,0s1,0,2.82,0C12.85,0,14.82,0,15,0A4.57,4.57,0,0,1,17.3,1a2.55,2.55,0,0,1,.94,2A3.27,3.27,0,0,1,17,5.51,6.63,6.63,0,0,1,14.09,7l-.22.06a4.19,4.19,0,0,1,2.28,1,2.66,2.66,0,0,1,.92,2,4.25,4.25,0,0,1-1.57,3.06,6.2,6.2,0,0,1-3.84,1.67c-.1,0-1.63,0-4.58,0s-4.36,0-4.4,0a.2.2,0,0,1-.09-.18,1,1,0,0,1,0-.3c.08-.27.15-.43.22-.45a1.21,1.21,0,0,1,.33,0h.13c.39,0,.82,0,1.3-.06A.56.56,0,0,0,5,13.5c0-.06.57-2.07,1.56-6s1.5-6.06,1.5-6.28S7.67,1,6.84,1Zm9.07,2a2.37,2.37,0,0,0-.32-1.22,1.61,1.61,0,0,0-1.06-.74c-.11,0-.77-.05-2-.06h-.91l-.76,0h-.28a.44.44,0,0,0-.42.22c0,.05-.26.92-.69,2.6a.59.59,0,0,1,0,.13L8.78,6.71h1.75c1.17,0,1.85,0,2,0A4.09,4.09,0,0,0,14.87,5.4,3.37,3.37,0,0,0,15.91,3ZM14.74,9.85a2.43,2.43,0,0,0-.5-1.58,1.9,1.9,0,0,0-1.3-.74c-.09,0-.69,0-1.8,0-1.71,0-2.57,0-2.58,0s-.12.56-.37,1.58-.5,2.05-.76,3.06L7,13.69c0,.06.09.09.26.09l1.76,0c1.28,0,2,0,2.08,0a4.13,4.13,0,0,0,2.47-1.26A3.58,3.58,0,0,0,14.74,9.85Z"/><path class="cls-2" d="M0,314.77c110,0,237-109.82,237-205"/><line class="cls-2" x1="25" y1="339.77" x2="29.24" y2="335.52"/><line class="cls-3" x1="37.97" y1="326.8" x2="277.9" y2="86.87"/><line class="cls-2" x1="282.26" y1="82.51" x2="286.5" y2="78.27"/><path id="MJMAIN-393" d="M200.47,228.14a.54.54,0,0,0-.18-.15.82.82,0,0,0-.26-.05l-.7-.05h-.54v-.75h8.64v.07c0,.06.1.69.23,1.89s.2,1.83.23,1.9v.06h-.66V231s0-.2-.06-.56a6.33,6.33,0,0,0-.25-1.09,2.15,2.15,0,0,0-.5-.87,3.49,3.49,0,0,0-2.34-.59h-.24c-.77,0-1.23,0-1.39,0s-.25.08-.26.2,0,1.56,0,4.6l0,4.54a.55.55,0,0,0,.19.15,2.27,2.27,0,0,0,.41.06c.22,0,.56,0,1,0h.44v.76h-.2c-.26,0-1.16-.05-2.71-.05s-2.22,0-2.38.05h-.18v-.76h.54a7.55,7.55,0,0,0,.83,0,.74.74,0,0,0,.31-.2Z"/><path id="MJMATHI-66" d="M210,242.65a.11.11,0,0,1,.07,0,.35.35,0,0,0,.13,0h.13a.36.36,0,0,0,.28-.15.92.92,0,0,0,.19-.33q.1-.31.39-1.77c.18-1,.36-1.89.53-2.77s.25-1.32.25-1.33v0h-.54a4.31,4.31,0,0,1-.58,0,.16.16,0,0,1,0-.12l.08-.32a.08.08,0,0,1,.09-.06H212s0-.21.1-.58.12-.59.14-.67c.29-1.27.85-1.9,1.69-1.9a1.14,1.14,0,0,1,.7.25.74.74,0,0,1,.28.61.68.68,0,0,1-.25.6.9.9,0,0,1-.48.2c-.34,0-.51-.16-.51-.49a.58.58,0,0,1,.13-.38.78.78,0,0,1,.28-.24l.1-.06a1.15,1.15,0,0,0-.35-.07.37.37,0,0,0-.26.12.59.59,0,0,0-.18.32q-.07.33-.18.9l-.18,1q-.09.39-.09.42a4.49,4.49,0,0,0,.64,0h.6a.21.21,0,0,1,.13.07.66.66,0,0,1,0,.2.89.89,0,0,1-.05.18.11.11,0,0,1-.11.06h-1.27l-.26,1.41c-.37,1.91-.63,3.1-.78,3.58a3.3,3.3,0,0,1-.8,1.45,1.3,1.3,0,0,1-.85.37,1.1,1.1,0,0,1-.67-.22.71.71,0,0,1-.3-.62.74.74,0,0,1,.24-.62.76.76,0,0,1,.49-.2q.51,0,.51.48a.55.55,0,0,1-.13.38.94.94,0,0,1-.28.25Z"/></g></g></svg>