<svg xmlns="http://www.w3.org/2000/svg" viewBox="0 0 375 375"><defs><style>.cls-1,.cls-2{fill:none;stroke-miterlimit:10;}.cls-1,.cls-2,.cls-3{stroke:#000;}.cls-1{stroke-width:2px;}</style></defs><title>img07</title><g id="Ebene_2" data-name="Ebene 2"><g id="Ebene_1-2" data-name="Ebene 1"><line class="cls-1" x1="49.5" y1="12.07" x2="49.5" y2="375"/><path d="M49.5,0C47.39,5.68,43.8,12.73,40,17.09l9.51-3.44L59,17.09C55.2,12.73,51.61,5.68,49.5,0Z"/><line class="cls-1" y1="325.5" x2="362.93" y2="325.5"/><path d="M375,325.5c-5.68,2.11-12.73,5.7-17.09,9.51l3.44-9.51L357.91,316C362.27,319.8,369.32,323.39,375,325.5Z"/><path id="MJMAIN-28" d="M245.15,123.13a18.89,18.89,0,0,1,.22-3,19.69,19.69,0,0,1,.53-2.43,8.86,8.86,0,0,1,.84-2l.86-1.53a6.07,6.07,0,0,1,1-1.18c.42-.42.67-.68.75-.77a3.61,3.61,0,0,1,.57-.48h.38c.21,0,.32.07.32.21a1.94,1.94,0,0,1-.39.47,13.34,13.34,0,0,0-.93,1.21,16.49,16.49,0,0,0-1.11,1.95,13.07,13.07,0,0,0-1,3.14,22.79,22.79,0,0,0-.38,4.39,22.51,22.51,0,0,0,.38,4.37,15.33,15.33,0,0,0,.93,3.16,10.62,10.62,0,0,0,1.12,2c.38.5.7.9.95,1.21a4,4,0,0,1,.39.48c0,.13-.11.2-.34.2h-.36l-.64-.55a11.18,11.18,0,0,1-3.12-4.82A18.58,18.58,0,0,1,245.15,123.13Z"/><path id="MJMATHI-61" d="M252.6,125.25a6.73,6.73,0,0,1,1.73-4.37,5.07,5.07,0,0,1,3.89-2.09,2.59,2.59,0,0,1,2,1.11,1.14,1.14,0,0,1,1-.68.85.85,0,0,1,.53.18.55.55,0,0,1,.22.46c0,.19-.28,1.41-.84,3.63s-.85,3.49-.86,3.78a1.18,1.18,0,0,0,.16.75.63.63,0,0,0,.47.2,1,1,0,0,0,.46-.2,5.08,5.08,0,0,0,.93-2.18c.09-.31.17-.47.23-.48a.59.59,0,0,1,.23,0h.09c.29,0,.43.06.43.2a4,4,0,0,1-.11.61,7.32,7.32,0,0,1-.46,1.23,3.94,3.94,0,0,1-.73,1.14,2.16,2.16,0,0,1-.72.48,2.62,2.62,0,0,1-.55,0,2.31,2.31,0,0,1-1.3-.34,1.85,1.85,0,0,1-.68-.7l-.13-.34s-.05,0-.1,0l-.09.09a4,4,0,0,1-2.73,1.27,3.09,3.09,0,0,1-2.2-.91A3.8,3.8,0,0,1,252.6,125.25Zm7.23-3.89a1.8,1.8,0,0,0-.11-.5,2.08,2.08,0,0,0-.52-.8,1.42,1.42,0,0,0-1.05-.45,2.16,2.16,0,0,0-1.52.7,4.72,4.72,0,0,0-1.14,1.84,18,18,0,0,0-.93,3.73v.25a1.91,1.91,0,0,1,0,.28,1.84,1.84,0,0,0,.41,1.4,1.4,1.4,0,0,0,1,.41,2.57,2.57,0,0,0,1.71-.75,3.8,3.8,0,0,0,1-1.16c0-.06.23-.87.61-2.43S259.82,121.48,259.83,121.36Z"/><path id="MJMAIN-2C" d="M265.68,128v-.57a1.45,1.45,0,0,1,.36-1,1.27,1.27,0,0,1,1-.41,1.51,1.51,0,0,1,1.14.57,3.2,3.2,0,0,1,.52,2,6.16,6.16,0,0,1-.2,1.55,7.74,7.74,0,0,1-.48,1.3,5.13,5.13,0,0,1-.59.93c-.22.26-.4.46-.55.61s-.25.22-.29.21-.16-.07-.3-.21-.2-.23-.2-.29.08-.19.25-.37.35-.41.56-.68a4.27,4.27,0,0,0,.6-1.14,6.46,6.46,0,0,0,.36-1.66v-.27l0,0-.12.05a.42.42,0,0,0-.13.07.41.41,0,0,1-.21,0l-.27,0a1.35,1.35,0,0,1-1-.39Z"/><path id="MJMATHI-62" d="M275.68,114.1a1.83,1.83,0,0,1,.09-.52c.07-.2.16-.29.28-.29l1.63-.12c1.08-.07,1.63-.12,1.66-.14.19,0,.28.07.28.21s-.26,1.22-.78,3.25c-.12.52-.25,1.05-.38,1.59s-.25,1-.34,1.23l-.09.43c0,.05,0,0,.13-.07a3.64,3.64,0,0,1,2.3-.91,2.79,2.79,0,0,1,2.27,1,4.12,4.12,0,0,1,.89,2.64,6.76,6.76,0,0,1-1.8,4.57,5.15,5.15,0,0,1-3.86,2,3,3,0,0,1-2.07-.87,3.74,3.74,0,0,1-1-2.8v-.2a6.16,6.16,0,0,1,.19-1.32c.12-.56.49-2,1.11-4.48.76-3,1.14-4.57,1.14-4.75s-.29-.29-.87-.32h-.59a.27.27,0,0,1-.16-.07A.15.15,0,0,1,275.68,114.1Zm6,7.33v-.14q0-1.68-1.38-1.68a2,2,0,0,0-.8.18,3,3,0,0,0-.75.48c-.23.19-.42.37-.59.54a3,3,0,0,0-.41.5l-.14.18-.47,2a12.66,12.66,0,0,0-.5,2.77,2.24,2.24,0,0,0,.54,1.64,1.24,1.24,0,0,0,.91.36,2.26,2.26,0,0,0,1.52-.72,3.82,3.82,0,0,0,.91-1.28,14.5,14.5,0,0,0,.75-2.38A10.87,10.87,0,0,0,281.66,121.43Z"/><path id="MJMAIN-29" d="M285.14,111.78l.09,0h.5l.64.55a11.24,11.24,0,0,1,3.12,4.82,18.58,18.58,0,0,1,1,6,19.26,19.26,0,0,1-.22,3,20.32,20.32,0,0,1-.53,2.43,9.26,9.26,0,0,1-.84,2c-.36.67-.65,1.18-.86,1.53a7.46,7.46,0,0,1-.93,1.16l-.73.75c-.08.07-.25.22-.53.43l-.09.09h-.52a.13.13,0,0,1-.11-.07.42.42,0,0,1-.07-.2l.25-.3q3.53-3.66,3.52-10.8t-3.52-10.8L285,112A.28.28,0,0,1,285.14,111.78Z"/><path id="MJMATHI-62-2" data-name="MJMATHI-62" d="M21.49,129a2.62,2.62,0,0,1,.13-.72c.08-.27.21-.41.37-.41l2.25-.15c1.48-.11,2.24-.17,2.28-.19.25,0,.37.09.37.28s-.35,1.68-1.06,4.46c-.16.71-.34,1.44-.53,2.19s-.34,1.31-.47,1.68l-.12.6c0,.06.06,0,.19-.1a5,5,0,0,1,3.15-1.25,3.84,3.84,0,0,1,3.12,1.44,5.68,5.68,0,0,1,1.22,3.62,9.29,9.29,0,0,1-2.47,6.27,7.07,7.07,0,0,1-5.3,2.81,4.07,4.07,0,0,1-2.84-1.19,5.11,5.11,0,0,1-1.32-3.83v-.28a9.54,9.54,0,0,1,.25-1.81q.25-1.15,1.53-6.15,1.56-6.15,1.56-6.52c0-.25-.39-.4-1.18-.44h-.81a.37.37,0,0,1-.22-.09A.2.2,0,0,1,21.49,129Zm8.21,10v-.18c0-1.54-.63-2.31-1.9-2.31a2.58,2.58,0,0,0-1.09.25,3.82,3.82,0,0,0-1,.65c-.32.27-.59.52-.82.75a4.85,4.85,0,0,0-.56.69l-.18.25-.66,2.68a17.89,17.89,0,0,0-.69,3.81,3.06,3.06,0,0,0,.75,2.25,1.72,1.72,0,0,0,1.25.5,3.13,3.13,0,0,0,2.09-1,5.32,5.32,0,0,0,1.25-1.75,20.65,20.65,0,0,0,1-3.28A15.6,15.6,0,0,0,29.7,139Z"/><path id="MJMATHI-61-2" data-name="MJMATHI-61" d="M288.8,355.22a9.35,9.35,0,0,1,2.4-6.07,7.07,7.07,0,0,1,5.41-2.91,3.59,3.59,0,0,1,2.85,1.55,1.56,1.56,0,0,1,1.45-1,1.13,1.13,0,0,1,.73.25.78.78,0,0,1,.31.63c0,.28-.39,2-1.17,5.06s-1.18,4.85-1.2,5.25a1.77,1.77,0,0,0,.22,1.05.93.93,0,0,0,.67.28,1.32,1.32,0,0,0,.63-.28,7.21,7.21,0,0,0,1.3-3c.12-.42.23-.64.31-.66a1,1,0,0,1,.32,0h.13c.4,0,.6.09.6.28a5.62,5.62,0,0,1-.16.85,10.44,10.44,0,0,1-.63,1.71,5.39,5.39,0,0,1-1,1.58,3,3,0,0,1-1,.67,3.55,3.55,0,0,1-.76.06,3.3,3.3,0,0,1-1.8-.47,2.55,2.55,0,0,1-.95-1l-.19-.48s-.06,0-.12,0l-.13.13a5.54,5.54,0,0,1-3.8,1.77,4.27,4.27,0,0,1-3.06-1.27A5.3,5.3,0,0,1,288.8,355.22Zm10.05-5.41a3,3,0,0,0-.15-.7A3.11,3.11,0,0,0,298,348a2,2,0,0,0-1.46-.63,3,3,0,0,0-2.11,1,6.5,6.5,0,0,0-1.59,2.56,25,25,0,0,0-1.29,5.18v.35a1.74,1.74,0,0,1,0,.38,2.65,2.65,0,0,0,.57,2,2,2,0,0,0,1.36.57,3.59,3.59,0,0,0,2.37-1,5.39,5.39,0,0,0,1.39-1.62c0-.08.33-1.21.85-3.38S298.83,350,298.85,349.81Z"/><path class="cls-2" d="M31.5,259c220.07-1,71.08-121,334-121"/><circle cx="296.5" cy="143" r="4"/><line class="cls-1" x1="296.5" y1="336" x2="296.5" y2="316"/><line class="cls-1" x1="39.5" y1="143" x2="59.5" y2="143"/><path id="MJMATHI-41" d="M354.18,356.29q0,.52,1,.6c.25,0,.38.08.38.24s0,.11,0,.28a1.12,1.12,0,0,1-.13.38c0,.06-.14.09-.28.09h-.26l-.72,0c-.34,0-.8,0-1.37,0-1,0-1.66,0-1.95.05h-.17a.41.41,0,0,1-.15-.24,1,1,0,0,1,.28-.75h.3a2.59,2.59,0,0,0,2.18-1.07c.09-.08,1.38-2.26,3.87-6.52l3.81-6.48a.55.55,0,0,1,.51-.26H362a1.42,1.42,0,0,1,.13.22l.6,6.9c.39,4.61.61,6.94.64,7s.53.23,1.39.23c.35,0,.53.07.53.22a2.32,2.32,0,0,1-.06.3,1.26,1.26,0,0,1-.11.38s-.13.07-.3.09h-.3l-.83,0q-.6,0-1.56,0c-1.34,0-2.22,0-2.63.05h-.26c-.09-.09-.13-.15-.13-.2a3.58,3.58,0,0,1,0-.38,1.57,1.57,0,0,1,.13-.34l.09-.07h.42c.77,0,1.23-.16,1.37-.36l-.25-3.21h-5.09l-.73,1.24A7,7,0,0,0,354.18,356.29Zm6.59-4c0-.16-.09-1.27-.26-3.34s-.27-3.11-.3-3.12l-.57.92-1.35,2.28-1.93,3.26,2.21,0C360,352.34,360.77,352.33,360.77,352.32Z"/><path id="MJMATHI-42" d="M21.61,3.49a5,5,0,0,1-.7,0c-.07,0-.11-.09-.11-.24,0-.39.08-.62.24-.71s1,0,2.82,0c3.75,0,5.73,0,5.93,0a4.56,4.56,0,0,1,2.28,1,2.53,2.53,0,0,1,.93,2A3.27,3.27,0,0,1,31.74,8a6.65,6.65,0,0,1-2.88,1.5l-.22.06a4.19,4.19,0,0,1,2.28,1,2.67,2.67,0,0,1,.91,2,4.27,4.27,0,0,1-1.56,3.06,6.25,6.25,0,0,1-3.85,1.67c-.1,0-1.62,0-4.57,0s-4.37,0-4.41,0a.23.23,0,0,1-.09-.18,1,1,0,0,1,0-.3c.07-.28.14-.43.21-.46l.33,0h.13c.39,0,.82,0,1.3-.06a.6.6,0,0,0,.41-.27q.07-.08,1.57-6t1.49-6.27C22.84,3.59,22.43,3.52,21.61,3.49Zm9.07,2a2.34,2.34,0,0,0-.33-1.21,1.56,1.56,0,0,0-1.06-.74c-.1,0-.77-.05-2-.07h-.91a7.56,7.56,0,0,0-.76,0h-.28c-.22,0-.36.08-.41.21s-.26.93-.7,2.61a.32.32,0,0,1,0,.13L23.54,9.2H25.3c1.17,0,1.84,0,2,0A4.24,4.24,0,0,0,29.64,7.9,3.41,3.41,0,0,0,30.68,5.51Zm-1.17,6.84a2.5,2.5,0,0,0-.5-1.59A2,2,0,0,0,27.7,10c-.08,0-.68,0-1.8,0-1.7,0-2.56,0-2.58,0s-.12.55-.37,1.58-.5,2.05-.76,3.06l-.39,1.52c0,.06.09.09.26.09l1.76,0c1.29,0,2,0,2.08,0A4.15,4.15,0,0,0,28.38,15,3.63,3.63,0,0,0,29.51,12.35Z"/><path id="MJMAIN-393" class="cls-3" d="M345.57,112.81a1.12,1.12,0,0,0-.29-.23,1.25,1.25,0,0,0-.41-.08l-1.12-.08h-.86v-1.19h13.74v.1c0,.1.16,1.11.37,3s.33,2.91.36,3v.1h-1v-.1s0-.32-.1-.89a9.42,9.42,0,0,0-.39-1.74,3.11,3.11,0,0,0-.81-1.37c-.65-.63-1.89-.94-3.71-.94h-.39c-1.21,0-1.95,0-2.21,0s-.4.12-.41.31,0,2.49,0,7.32l0,7.23a.9.9,0,0,0,.31.23,2.58,2.58,0,0,0,.65.1,15.68,15.68,0,0,0,1.63.06h.7v1.19h-.31c-.41,0-1.85-.08-4.31-.08-2.27,0-3.53,0-3.79.08h-.29V127.7h.86a11.55,11.55,0,0,0,1.32-.08,1.16,1.16,0,0,0,.5-.31Z"/></g></g></svg>