<svg xmlns="http://www.w3.org/2000/svg" viewBox="0 0 376.51 351.03"><defs><style>.cls-1,.cls-2,.cls-3,.cls-4{fill:none;stroke:#000;stroke-miterlimit:10;}.cls-1{stroke-width:2px;}.cls-3{stroke-dasharray:11.81 11.81;}.cls-4{stroke-dasharray:12;}</style></defs><title>img1</title><g id="Ebene_2" data-name="Ebene 2"><g id="Ebene_1-2" data-name="Ebene 1"><line class="cls-1" x1="41.01" y1="12.07" x2="41.01" y2="350"/><path d="M41,0c-2.11,5.68-5.7,12.73-9.51,17.09L41,13.65l9.51,3.44C46.71,12.73,43.12,5.68,41,0Z"/><line class="cls-1" x1="16.51" y1="325.5" x2="354.44" y2="325.5"/><path d="M366.51,325.5c-5.68,2.11-12.72,5.7-17.09,9.51l3.44-9.51L349.42,316C353.79,319.8,360.83,323.39,366.51,325.5Z"/><line class="cls-2" x1="41.01" y1="80" x2="47.01" y2="80"/><line class="cls-3" x1="58.82" y1="80" x2="289.11" y2="80"/><line class="cls-2" x1="295.01" y1="80" x2="301.01" y2="80"/><line class="cls-4" x1="301.01" y1="80" x2="301.01" y2="325"/><path id="MJMAIN-28" d="M306.82,70.57a18.57,18.57,0,0,1,.23-2.95,19.64,19.64,0,0,1,.52-2.42,9,9,0,0,1,.83-2c.37-.65.65-1.16.86-1.52a6,6,0,0,1,.95-1.17c.42-.42.67-.68.75-.77a3.44,3.44,0,0,1,.56-.47h.38c.21,0,.32.07.32.2s-.13.2-.38.47a10.21,10.21,0,0,0-.93,1.2,17.12,17.12,0,0,0-1.11,1.94,13,13,0,0,0-.94,3.12,22.4,22.4,0,0,0-.39,4.35,22.15,22.15,0,0,0,.39,4.34,14.56,14.56,0,0,0,.92,3.14A10.28,10.28,0,0,0,310.89,80c.37.5.69.89.95,1.19a6.1,6.1,0,0,1,.38.48c0,.13-.11.2-.34.2h-.36l-.63-.54a11,11,0,0,1-3.09-4.79A18.35,18.35,0,0,1,306.82,70.57Z"/><path id="MJMATHI-78" d="M314.66,69.69a4.8,4.8,0,0,1,1.22-2.19,3.41,3.41,0,0,1,2.62-1.26,2.71,2.71,0,0,1,1.44.41,2.6,2.6,0,0,1,1,1,2.71,2.71,0,0,1,2.28-1.42,2.24,2.24,0,0,1,1.45.5,1.72,1.72,0,0,1,.63,1.33,1.67,1.67,0,0,1-.32,1.06,1.34,1.34,0,0,1-.61.5,1.78,1.78,0,0,1-.52.09,1,1,0,0,1-.7-.25.87.87,0,0,1-.27-.66A1.44,1.44,0,0,1,324,67.39a1.15,1.15,0,0,0-.9-.29,1.51,1.51,0,0,0-.43,0,2.37,2.37,0,0,0-1.26,1.49A40.4,40.4,0,0,0,320,74.46a1.05,1.05,0,0,0,.36.9,1.3,1.3,0,0,0,.79.27,2.47,2.47,0,0,0,1.65-.74,3.85,3.85,0,0,0,1.11-1.83c0-.15.09-.24.13-.25a2.1,2.1,0,0,1,.36,0h.09c.23,0,.34.06.34.19a2.42,2.42,0,0,1,0,.24,5,5,0,0,1-1.4,2.28,3.38,3.38,0,0,1-2.42,1A2.6,2.6,0,0,1,318.61,75a2.59,2.59,0,0,1-2.12,1.4h-.14a1.92,1.92,0,0,1-1.58-.58,2.08,2.08,0,0,1-.5-1.24,1.66,1.66,0,0,1,.43-1.18,1.37,1.37,0,0,1,1-.45.85.85,0,0,1,1,1,1.24,1.24,0,0,1-.27.79,1.69,1.69,0,0,1-.52.45,1.09,1.09,0,0,1-.29.11l-.07,0s0,0,.13.09l.36.15a.86.86,0,0,0,.43.07,1.66,1.66,0,0,0,1.4-1,8.05,8.05,0,0,0,.52-1.54c.21-.78.42-1.59.63-2.44s.34-1.34.37-1.49a6,6,0,0,0,.11-.88,1.07,1.07,0,0,0-.34-.9,1.21,1.21,0,0,0-.77-.27,2.48,2.48,0,0,0-1.69.72,3.83,3.83,0,0,0-1.11,1.85c0,.14-.06.21-.11.23a2.39,2.39,0,0,1-.36,0h-.32A.36.36,0,0,1,314.66,69.69Z"/><path id="MJMAIN-31" d="M329.8,70.39l-.21.08a3.46,3.46,0,0,1-.64.16,6.25,6.25,0,0,1-.93.11h-.3V70h.3a5,5,0,0,0,1.39-.24,4.18,4.18,0,0,0,.9-.38,4.51,4.51,0,0,0,.44-.35s.09-.05.19-.05a.49.49,0,0,1,.28.09v9.56a.67.67,0,0,0,.19.15,2.1,2.1,0,0,0,.39.06q.3,0,1,0h.41v.74H333c-.23,0-1.07-.05-2.54-.05s-2.28,0-2.51.05h-.19v-.74h1.42l.26-.05.12,0,.1-.08c.05,0,.08-.08.1-.07Z"/><path id="MJMAIN-2C" d="M338.41,75.43v-.57a1.42,1.42,0,0,1,.36-1,1.22,1.22,0,0,1,1-.4,1.49,1.49,0,0,1,1.13.56,3.17,3.17,0,0,1,.52,2,5.59,5.59,0,0,1-.21,1.53,6.61,6.61,0,0,1-.47,1.29,5.13,5.13,0,0,1-.59.93q-.31.38-.54.6c-.15.16-.25.22-.29.21s-.16-.07-.3-.21-.2-.23-.2-.29.08-.18.25-.36.35-.41.56-.68a4.19,4.19,0,0,0,.59-1.13,6.49,6.49,0,0,0,.36-1.64V76l0,0-.11,0-.14.07a.37.37,0,0,1-.2,0,1.23,1.23,0,0,0-.27,0,1.35,1.35,0,0,1-1-.39Z"/><path id="MJMATHI-78-2" data-name="MJMATHI-78" d="M347.89,69.69a4.8,4.8,0,0,1,1.22-2.19,3.41,3.41,0,0,1,2.62-1.26,2.71,2.71,0,0,1,1.44.41,2.6,2.6,0,0,1,1,1,2.71,2.71,0,0,1,2.28-1.42,2.24,2.24,0,0,1,1.45.5,1.72,1.72,0,0,1,.63,1.33,1.67,1.67,0,0,1-.32,1.06,1.34,1.34,0,0,1-.61.5,1.78,1.78,0,0,1-.52.09,1,1,0,0,1-.7-.25.87.87,0,0,1-.27-.66,1.44,1.44,0,0,1,1.13-1.42,1.15,1.15,0,0,0-.9-.29,1.51,1.51,0,0,0-.43,0,2.41,2.41,0,0,0-1.27,1.49,41.18,41.18,0,0,0-1.35,5.83,1.05,1.05,0,0,0,.36.9,1.3,1.3,0,0,0,.79.27,2.47,2.47,0,0,0,1.65-.74,3.85,3.85,0,0,0,1.11-1.83c0-.15.09-.24.13-.25a2.1,2.1,0,0,1,.36,0h.09c.23,0,.34.06.34.19a2.42,2.42,0,0,1,0,.24,5,5,0,0,1-1.4,2.28,3.38,3.38,0,0,1-2.42,1A2.6,2.6,0,0,1,351.84,75a2.59,2.59,0,0,1-2.12,1.4h-.14a1.92,1.92,0,0,1-1.58-.58,2.08,2.08,0,0,1-.5-1.24,1.66,1.66,0,0,1,.43-1.18,1.37,1.37,0,0,1,1-.45.85.85,0,0,1,1,1,1.24,1.24,0,0,1-.27.79,1.69,1.69,0,0,1-.52.45,1.09,1.09,0,0,1-.29.11l-.07,0s0,0,.13.09l.36.15a.86.86,0,0,0,.43.07,1.66,1.66,0,0,0,1.4-1,8.05,8.05,0,0,0,.52-1.54c.21-.78.42-1.59.63-2.44s.34-1.34.37-1.49a6,6,0,0,0,.11-.88,1.07,1.07,0,0,0-.34-.9,1.21,1.21,0,0,0-.77-.27,2.48,2.48,0,0,0-1.69.72,3.83,3.83,0,0,0-1.11,1.85c0,.14-.06.21-.11.23a2.39,2.39,0,0,1-.36,0H348A.36.36,0,0,1,347.89,69.69Z"/><path id="MJMAIN-32" d="M361.37,72.77a.85.85,0,0,1-.69-.29,1,1,0,0,1-.26-.7,2.67,2.67,0,0,1,.85-2,2.9,2.9,0,0,1,2.11-.83,3.48,3.48,0,0,1,2.42.89,3.06,3.06,0,0,1,1,2.32,2.79,2.79,0,0,1-.32,1.31,4.75,4.75,0,0,1-.76,1.08c-.3.31-.73.7-1.28,1.18-.38.33-.92.82-1.6,1.47l-.94.89,1.21,0a19.8,19.8,0,0,0,2.67-.08,4.42,4.42,0,0,0,.38-1.42V76.6h.64v.05s-.08.52-.21,1.45a8.91,8.91,0,0,1-.24,1.47v.05h-5.92v-.5a.47.47,0,0,1,.1-.24c.06-.08.22-.27.48-.55l.8-.9.54-.59c.26-.29.45-.48.54-.59l.46-.53a5.16,5.16,0,0,0,.45-.54l.37-.48a2.36,2.36,0,0,0,.33-.51l.24-.46a1.84,1.84,0,0,0,.21-.51c0-.17.08-.33.11-.48a2.73,2.73,0,0,0,.05-.53,2.86,2.86,0,0,0-.54-1.74,1.81,1.81,0,0,0-1.55-.73,1.64,1.64,0,0,0-.93.27,2.06,2.06,0,0,0-.56.53,1.2,1.2,0,0,0-.15.3s0,0,.08,0a1,1,0,0,1,.59.22.85.85,0,0,1,.3.73.94.94,0,0,1-.26.67A1,1,0,0,1,361.37,72.77Z"/><path id="MJMAIN-29" d="M371.23,59.31l.09,0h.5l.63.54a11.17,11.17,0,0,1,3.09,4.79,18.32,18.32,0,0,1,1,5.95,18.91,18.91,0,0,1-.22,3,20.29,20.29,0,0,1-.52,2.42,10.49,10.49,0,0,1-.84,2c-.36.67-.65,1.17-.86,1.52a7.3,7.3,0,0,1-.92,1.15l-.72.74c-.08.08-.25.22-.52.43l-.09.09h-.52a.13.13,0,0,1-.12-.07.43.43,0,0,1-.06-.2l.25-.29q3.5-3.64,3.49-10.73t-3.49-10.72l-.25-.29A.26.26,0,0,1,371.23,59.31Z"/><path id="MJMATHI-78-3" data-name="MJMATHI-78" d="M292.81,337.29a6.68,6.68,0,0,1,1.69-3,4.67,4.67,0,0,1,3.62-1.75,3.81,3.81,0,0,1,2,.56,3.68,3.68,0,0,1,1.34,1.41,3.79,3.79,0,0,1,3.16-2,3.06,3.06,0,0,1,2,.69,2.35,2.35,0,0,1,.88,1.84,2.32,2.32,0,0,1-.44,1.47,1.8,1.8,0,0,1-.84.69,2.75,2.75,0,0,1-.72.13,1.37,1.37,0,0,1-1-.35,1.17,1.17,0,0,1-.38-.9,2,2,0,0,1,1.56-2,1.53,1.53,0,0,0-1.25-.41,2.07,2.07,0,0,0-.59.06,3.25,3.25,0,0,0-1.75,2.07,57.13,57.13,0,0,0-1.88,8.06,1.48,1.48,0,0,0,.5,1.26,1.8,1.8,0,0,0,1.1.37,3.38,3.38,0,0,0,2.28-1,5.21,5.21,0,0,0,1.53-2.53c.06-.21.13-.33.19-.35a3.06,3.06,0,0,1,.5-.06h.13c.31,0,.46.08.46.25,0,0,0,.13-.06.34a6.88,6.88,0,0,1-1.94,3.16,4.68,4.68,0,0,1-3.34,1.38,3.62,3.62,0,0,1-3.32-2,3.59,3.59,0,0,1-2.94,1.94h-.19a2.64,2.64,0,0,1-2.19-.82,2.87,2.87,0,0,1-.68-1.72,2.23,2.23,0,0,1,.59-1.62,1.89,1.89,0,0,1,1.41-.63,1.18,1.18,0,0,1,1.34,1.32,1.69,1.69,0,0,1-.37,1.09,2.22,2.22,0,0,1-.72.63,1.93,1.93,0,0,1-.41.15l-.09,0s.06.07.19.13l.5.22a1.24,1.24,0,0,0,.59.09,2.31,2.31,0,0,0,1.94-1.41A10.73,10.73,0,0,0,298,342c.29-1.09.58-2.21.87-3.38s.46-1.86.5-2.07a7,7,0,0,0,.16-1.22,1.52,1.52,0,0,0-.47-1.25,1.65,1.65,0,0,0-1.06-.37,3.41,3.41,0,0,0-2.35,1,5.33,5.33,0,0,0-1.53,2.56c0,.19-.09.3-.16.32a3.06,3.06,0,0,1-.5.06H293A.52.52,0,0,1,292.81,337.29Z"/><path id="MJMAIN-31-2" data-name="MJMAIN-31" d="M313.78,338.25l-.29.11a5,5,0,0,1-.88.22,9.31,9.31,0,0,1-1.28.16h-.42v-1h.42a7.27,7.27,0,0,0,1.92-.33,4.05,4.05,0,0,0,1.86-1s.11-.06.26-.06a.62.62,0,0,1,.38.13v6.61l0,6.64a.79.79,0,0,0,.27.19,2.52,2.52,0,0,0,.53.09c.28,0,.73,0,1.37,0h.57v1h-.24c-.31,0-1.48-.06-3.52-.06s-3.16,0-3.47.06H311v-1h1.41a3.82,3.82,0,0,0,.55,0,1.8,1.8,0,0,0,.36-.06l.17-.05s.06,0,.14-.11.12-.1.13-.08Z"/><path id="MJMATHI-78-4" data-name="MJMATHI-78" d="M.55,74.7a6.91,6.91,0,0,1,1.74-3.12A4.81,4.81,0,0,1,6,69.78a3.79,3.79,0,0,1,2.06.58A3.68,3.68,0,0,1,9.47,71.8a3.87,3.87,0,0,1,3.25-2,3.17,3.17,0,0,1,2.06.7,2.59,2.59,0,0,1,.45,3.42,2,2,0,0,1-.87.71,2.7,2.7,0,0,1-.74.12,1.4,1.4,0,0,1-1-.35,1.2,1.2,0,0,1-.38-.93,2,2,0,0,1,1.61-2A1.64,1.64,0,0,0,12.56,71a2.24,2.24,0,0,0-.61.06,3.41,3.41,0,0,0-1.81,2.13A59.35,59.35,0,0,0,8.21,81.5a1.47,1.47,0,0,0,.52,1.28,1.82,1.82,0,0,0,1.12.39,3.46,3.46,0,0,0,2.35-1.06,5.34,5.34,0,0,0,1.58-2.61c.07-.21.13-.33.19-.35a2.22,2.22,0,0,1,.52-.07h.13c.32,0,.48.09.48.26,0,0,0,.14-.06.35A7.17,7.17,0,0,1,13,83,4.83,4.83,0,0,1,9.6,84.36a3.71,3.71,0,0,1-3.42-2,3.7,3.7,0,0,1-3,2H3a2.72,2.72,0,0,1-2.25-.84A3,3,0,0,1,0,81.72a2.32,2.32,0,0,1,.61-1.67,1.94,1.94,0,0,1,1.45-.65,1.22,1.22,0,0,1,1.39,1.36,1.72,1.72,0,0,1-.39,1.12,2.21,2.21,0,0,1-.74.65,2.61,2.61,0,0,1-.42.16l-.1,0s.07.06.2.13.3.14.51.22a1.24,1.24,0,0,0,.61.1,2.37,2.37,0,0,0,2-1.45,11.5,11.5,0,0,0,.74-2.19q.45-1.66.9-3.48c.3-1.2.47-1.91.52-2.12a8.8,8.8,0,0,0,.16-1.26A1.54,1.54,0,0,0,7,71.39,1.72,1.72,0,0,0,5.86,71a3.5,3.5,0,0,0-2.41,1,5.46,5.46,0,0,0-1.58,2.64c-.05.19-.1.3-.16.32a3,3,0,0,1-.52.07H.74A.53.53,0,0,1,.55,74.7Z"/><path id="MJMAIN-32-2" data-name="MJMAIN-32" d="M19.77,79.09a1.27,1.27,0,0,1-1-.41,1.46,1.46,0,0,1-.36-1,3.77,3.77,0,0,1,1.21-2.8,4.09,4.09,0,0,1,3-1.18A4.93,4.93,0,0,1,26.1,75a4.31,4.31,0,0,1,1.41,3.3,4.09,4.09,0,0,1-.45,1.87A6.55,6.55,0,0,1,26,81.69c-.42.44-1,1-1.82,1.68-.54.47-1.3,1.17-2.27,2.1l-1.35,1.27,1.73,0a29.17,29.17,0,0,0,3.81-.11,6.6,6.6,0,0,0,.54-2v-.07h.91v.07s-.11.74-.29,2.07a16.62,16.62,0,0,1-.35,2.1v.07H18.43v-.71a.54.54,0,0,1,.14-.34c.09-.12.31-.39.68-.8s.82-.91,1.14-1.27l.77-.84c.38-.41.64-.69.77-.85l.66-.75c.31-.35.52-.6.64-.77s.3-.4.53-.68a4.48,4.48,0,0,0,.47-.73c.1-.2.21-.42.35-.66a3.36,3.36,0,0,0,.29-.73c.06-.24.12-.47.16-.68a3.45,3.45,0,0,0,.07-.76,4.11,4.11,0,0,0-.77-2.48,2.59,2.59,0,0,0-2.21-1,2.27,2.27,0,0,0-1.32.38,2.79,2.79,0,0,0-.8.75,1.77,1.77,0,0,0-.23.44s0,0,.12,0a1.45,1.45,0,0,1,.84.32,1.2,1.2,0,0,1,.43,1,1.36,1.36,0,0,1-.36,1A1.41,1.41,0,0,1,19.77,79.09Z"/></g></g></svg>