<svg xmlns="http://www.w3.org/2000/svg" viewBox="0 0 365.8 369"><defs><style>.cls-1,.cls-2{fill:none;stroke:#000;stroke-miterlimit:10;}.cls-1{stroke-width:2px;}</style></defs><title>img3</title><g id="Ebene_2" data-name="Ebene 2"><g id="Ebene_1-2" data-name="Ebene 1"><line class="cls-1" x1="28.04" y1="26.57" x2="28.04" y2="364.5"/><path d="M28,14.5c-2.11,5.68-5.71,12.73-9.52,17.1L28,28.16l9.51,3.44C33.74,27.23,30.14,20.18,28,14.5Z"/><line class="cls-1" x1="3.54" y1="340" x2="341.46" y2="340"/><path d="M353.54,340c-5.68,2.11-12.73,5.71-17.1,9.52l3.44-9.52-3.44-9.51C340.81,334.3,347.86,337.9,353.54,340Z"/><path id="MJMAIN-28" d="M319.68,127.63a18.83,18.83,0,0,1,.23-3,20,20,0,0,1,.52-2.44,9.89,9.89,0,0,1,.84-2c.37-.65.65-1.16.87-1.52a5.77,5.77,0,0,1,.95-1.18q.65-.64.75-.78a5,5,0,0,1,.57-.48h.39c.21,0,.32.07.32.21s-.13.2-.39.48a9.43,9.43,0,0,0-.93,1.2,14.67,14.67,0,0,0-1.12,2,13,13,0,0,0-.95,3.14,22.65,22.65,0,0,0-.39,4.38,22.39,22.39,0,0,0,.39,4.37,15.14,15.14,0,0,0,.93,3.16,10.76,10.76,0,0,0,1.11,2q.57.75,1,1.2a4,4,0,0,1,.39.48c0,.14-.12.2-.35.2h-.36l-.64-.54a11.28,11.28,0,0,1-3.11-4.82A18.69,18.69,0,0,1,319.68,127.63Z"/><path id="MJMATHI-61" d="M327.14,129.75a6.75,6.75,0,0,1,1.73-4.37,5.1,5.1,0,0,1,3.89-2.09,2.56,2.56,0,0,1,2,1.12,1.13,1.13,0,0,1,1.05-.69.76.76,0,0,1,.52.19.56.56,0,0,1,.23.45c0,.2-.28,1.41-.84,3.64s-.85,3.48-.87,3.77a1.25,1.25,0,0,0,.16.75.72.72,0,0,0,.48.21,1,1,0,0,0,.45-.21,5.18,5.18,0,0,0,.94-2.18c.09-.3.16-.46.22-.48a.92.92,0,0,1,.23,0h.09c.29,0,.43.07.43.2a3,3,0,0,1-.11.62,7.14,7.14,0,0,1-.45,1.23,3.74,3.74,0,0,1-.73,1.13,2.21,2.21,0,0,1-.73.48,2.34,2.34,0,0,1-.54.05,2.39,2.39,0,0,1-1.3-.34,1.73,1.73,0,0,1-.68-.71l-.14-.34s0,0-.09,0l-.09.09a4,4,0,0,1-2.73,1.28,3.15,3.15,0,0,1-2.21-.91A3.87,3.87,0,0,1,327.14,129.75Zm7.23-3.89a2.29,2.29,0,0,0-.11-.5,2.2,2.2,0,0,0-.53-.8,1.45,1.45,0,0,0-1-.45,2.2,2.2,0,0,0-1.53.7,4.79,4.79,0,0,0-1.13,1.85,18.53,18.53,0,0,0-.94,3.73v.25a1,1,0,0,1,0,.27,1.93,1.93,0,0,0,.41,1.41,1.48,1.48,0,0,0,1,.41,2.55,2.55,0,0,0,1.7-.75,3.85,3.85,0,0,0,1-1.16c0-.06.23-.87.61-2.44S334.36,126,334.37,125.86Z"/><path id="MJMAIN-2C" d="M340.21,132.52V132a1.43,1.43,0,0,1,.37-1,1.22,1.22,0,0,1,1-.41,1.47,1.47,0,0,1,1.13.57,3.09,3.09,0,0,1,.53,2,5.67,5.67,0,0,1-.21,1.54,6.7,6.7,0,0,1-.48,1.3,5.13,5.13,0,0,1-.59.93c-.21.26-.39.46-.54.62s-.25.22-.3.2-.16-.07-.29-.2-.21-.24-.21-.3.08-.18.25-.36.36-.41.57-.69a4.35,4.35,0,0,0,.59-1.13,6.65,6.65,0,0,0,.36-1.66v-.28l0,0-.11,0-.14.07a.34.34,0,0,1-.2.05,1.32,1.32,0,0,0-.28,0,1.35,1.35,0,0,1-1-.39Z"/><path id="MJMATHI-62" d="M350.22,118.61a1.89,1.89,0,0,1,.09-.53c.06-.19.15-.29.27-.29l1.64-.12c1.08-.07,1.63-.12,1.66-.13.18,0,.27.07.27.2s-.26,1.22-.77,3.25c-.12.52-.25,1.05-.39,1.6s-.25,1-.34,1.22l-.09.44s.05,0,.14-.07a3.58,3.58,0,0,1,2.29-.91,2.84,2.84,0,0,1,2.28,1,4.11,4.11,0,0,1,.88,2.64,6.74,6.74,0,0,1-1.79,4.57,5.15,5.15,0,0,1-3.87,2,3,3,0,0,1-2.07-.87,3.68,3.68,0,0,1-.95-2.79v-.21a6.91,6.91,0,0,1,.18-1.32q.18-.84,1.11-4.47c.76-3,1.14-4.58,1.14-4.76s-.29-.29-.86-.32h-.59a.29.29,0,0,1-.16-.06C350.23,118.72,350.2,118.67,350.22,118.61Zm6,7.32v-.14c0-1.12-.46-1.68-1.39-1.68a1.93,1.93,0,0,0-.79.18,2.67,2.67,0,0,0-.75.48l-.6.54a3,3,0,0,0-.4.51l-.14.18-.48,2a13.38,13.38,0,0,0-.5,2.78,2.19,2.19,0,0,0,.55,1.63,1.2,1.2,0,0,0,.91.37,2.25,2.25,0,0,0,1.52-.73,3.93,3.93,0,0,0,.91-1.27,14.68,14.68,0,0,0,.75-2.39A11.41,11.41,0,0,0,356.2,125.93Z"/><path id="MJMAIN-29" d="M359.68,116.29l.09,0h.5l.64.55a11.28,11.28,0,0,1,3.11,4.82,18.68,18.68,0,0,1,1,6,20.64,20.64,0,0,1-.75,5.42,10.94,10.94,0,0,1-.84,2c-.37.66-.65,1.17-.87,1.52a6.53,6.53,0,0,1-.93,1.16l-.73.75a5.19,5.19,0,0,1-.52.43l-.09.09h-.52a.14.14,0,0,1-.12-.06.73.73,0,0,1-.07-.21,2.71,2.71,0,0,0,.25-.3q3.53-3.66,3.53-10.8t-3.53-10.8a3.22,3.22,0,0,0-.25-.29A.26.26,0,0,1,359.68,116.29Z"/><path id="MJMATHI-62-2" data-name="MJMATHI-62" d="M1,140.47a2.57,2.57,0,0,1,.12-.72c.09-.27.21-.4.38-.4l2.25-.16c1.47-.1,2.23-.17,2.27-.19.25,0,.38.1.38.28s-.36,1.68-1.06,4.47l-.53,2.18c-.19.75-.35,1.31-.47,1.69l-.13.59c0,.06.07,0,.19-.09a4.9,4.9,0,0,1,3.15-1.25,3.86,3.86,0,0,1,3.12,1.43,5.65,5.65,0,0,1,1.22,3.62,9.27,9.27,0,0,1-2.46,6.27A7.07,7.07,0,0,1,4.15,161a4.08,4.08,0,0,1-2.84-1.18A5.12,5.12,0,0,1,0,156v-.28a8.87,8.87,0,0,1,.25-1.81q.26-1.15,1.53-6.15,1.56-6.15,1.56-6.52c0-.25-.4-.4-1.19-.44H1.34a.42.42,0,0,1-.22-.09A.21.21,0,0,1,1,140.47Zm8.21,10.05v-.19c0-1.54-.64-2.31-1.91-2.31a2.82,2.82,0,0,0-1.09.25,4.3,4.3,0,0,0-1,.66q-.46.4-.81.75a3.42,3.42,0,0,0-.56.68l-.19.25L3,153.3a17.73,17.73,0,0,0-.69,3.8,3.06,3.06,0,0,0,.75,2.25,1.7,1.7,0,0,0,1.25.5,3.11,3.11,0,0,0,2.09-1,5.46,5.46,0,0,0,1.25-1.75,21.55,21.55,0,0,0,1-3.27A15.6,15.6,0,0,0,9.24,150.52Z"/><path id="MJMATHI-61-2" data-name="MJMATHI-61" d="M315.33,363.72a9.31,9.31,0,0,1,2.41-6.07,7.06,7.06,0,0,1,5.4-2.91,3.59,3.59,0,0,1,2.85,1.55,1.59,1.59,0,0,1,1.46-1,1.17,1.17,0,0,1,.72.25.79.79,0,0,1,.32.64q0,.4-1.17,5.06t-1.2,5.25a1.68,1.68,0,0,0,.22,1,.92.92,0,0,0,.66.28,1.39,1.39,0,0,0,.64-.28,7.17,7.17,0,0,0,1.29-3c.13-.42.23-.64.32-.66a1,1,0,0,1,.31,0h.13c.4,0,.6.09.6.28a4.73,4.73,0,0,1-.16.86,9,9,0,0,1-.63,1.7,5.25,5.25,0,0,1-1,1.59,3.16,3.16,0,0,1-1,.66,3.55,3.55,0,0,1-.76.06,3.17,3.17,0,0,1-1.8-.47,2.36,2.36,0,0,1-.95-1l-.19-.48s-.07,0-.13,0l-.13.12a5.52,5.52,0,0,1-3.79,1.77,4.34,4.34,0,0,1-3.07-1.26A5.35,5.35,0,0,1,315.33,363.72Zm10.06-5.41a2.74,2.74,0,0,0-.16-.69,2.93,2.93,0,0,0-.73-1.11,2,2,0,0,0-1.45-.63,3.06,3.06,0,0,0-2.12,1,6.67,6.67,0,0,0-1.58,2.56,26,26,0,0,0-1.3,5.19V365a1.7,1.7,0,0,1,0,.37,2.68,2.68,0,0,0,.57,2,2.06,2.06,0,0,0,1.36.56,3.54,3.54,0,0,0,2.37-1,5.13,5.13,0,0,0,1.39-1.61c.05-.09.33-1.21.86-3.39S325.37,358.48,325.39,358.31Z"/><path class="cls-2" d="M10,273.5c226-1,73-121,343-121"/><circle cx="323.54" cy="153" r="4"/><line class="cls-1" x1="322.54" y1="349.5" x2="322.54" y2="329.5"/><line class="cls-1" x1="17.54" y1="153" x2="37.54" y2="153"/><path id="MJMATHI-41" d="M354.72,362.8c0,.34.32.54,1,.6.26,0,.39.08.39.23s0,.11,0,.28a1,1,0,0,1-.13.39.35.35,0,0,1-.27.08h-.26l-.73,0-1.37,0c-1,0-1.66,0-1.94,0h-.17c-.1-.1-.15-.18-.15-.23a1,1,0,0,1,.27-.75h.3a2.63,2.63,0,0,0,2.19-1.07c.08-.09,1.37-2.26,3.87-6.53s3.76-6.42,3.81-6.48a.54.54,0,0,1,.51-.26h.53a.85.85,0,0,1,.13.22l.6,6.91c.4,4.6.61,6.93.64,7s.54.24,1.39.24q.54,0,.54.21a1.64,1.64,0,0,1-.07.3,2.42,2.42,0,0,1-.1.39s-.13.07-.3.08H365l-.84,0-1.56,0c-1.34,0-2.22,0-2.63,0h-.26a.35.35,0,0,1-.12-.19s0-.17,0-.39a1.84,1.84,0,0,1,.13-.34l.08-.06h.43c.77,0,1.23-.17,1.37-.37l-.26-3.21h-5.09l-.73,1.25A7,7,0,0,0,354.72,362.8Zm6.59-4c0-.16-.09-1.27-.26-3.34s-.27-3.11-.3-3.12l-.58.92c-.23.38-.68,1.15-1.35,2.29l-1.92,3.25,2.2,0C360.57,358.84,361.31,358.83,361.31,358.82Z"/><path id="MJMATHI-42" d="M10.14,1c-.39,0-.62,0-.69,0S9.34.88,9.34.74q0-.58.24-.72s.95,0,2.82,0c3.75,0,5.72,0,5.92,0A4.65,4.65,0,0,1,20.6,1a2.55,2.55,0,0,1,.94,2,3.27,3.27,0,0,1-1.26,2.49A6.63,6.63,0,0,1,17.39,7l-.22.06a4.19,4.19,0,0,1,2.28,1,2.62,2.62,0,0,1,.91,2,4.24,4.24,0,0,1-1.56,3.06A6.2,6.2,0,0,1,15,14.8c-.1,0-1.63,0-4.58,0s-4.36,0-4.4,0a.2.2,0,0,1-.09-.18,1,1,0,0,1,0-.3c.07-.27.15-.43.22-.45a1.17,1.17,0,0,1,.32,0H6.6c.4,0,.83,0,1.31-.06a.56.56,0,0,0,.41-.26q.06-.09,1.56-6t1.5-6.28C11.38,1.09,11,1,10.14,1Zm9.07,2a2.47,2.47,0,0,0-.32-1.22,1.61,1.61,0,0,0-1.07-.74c-.1,0-.76-.05-2-.06h-.91l-.76,0h-.29a.44.44,0,0,0-.41.22c0,.05-.26.92-.69,2.6a.59.59,0,0,1,0,.13l-.68,2.74h1.76c1.17,0,1.85,0,2,0A4.09,4.09,0,0,0,18.17,5.4,3.37,3.37,0,0,0,19.21,3ZM18,9.85a2.49,2.49,0,0,0-.5-1.58,1.9,1.9,0,0,0-1.3-.74c-.09,0-.69,0-1.8,0-1.71,0-2.57,0-2.58,0s-.13.56-.37,1.58-.5,2.05-.76,3.06l-.39,1.52c0,.06.08.09.26.09l1.76,0c1.28,0,2,0,2.08,0a4.13,4.13,0,0,0,2.47-1.26A3.58,3.58,0,0,0,18,9.85Z"/></g></g></svg>